<svg version="1.1" id="Layer_1" xmlns="http://www.w3.org/2000/svg" xmlns:xlink="http://www.w3.org/1999/xlink" x="0px" y="0px"
	 width="100%" viewBox="0 0 500 500" enable-background="new 0 0 500 500" xml:space="preserve">
<path fill="#FFFFFF00" opacity="1.000000" stroke="#000" 
	d="
M344.000000,501.000000 
	C229.333359,501.000000 115.166718,501.000000 1.000061,501.000000 
	C1.000041,334.333405 1.000041,167.666794 1.000020,1.000151 
	C167.666565,1.000100 334.333130,1.000100 500.999756,1.000050 
	C500.999847,167.666519 500.999847,334.333038 500.999939,500.999786 
	C448.833344,501.000000 396.666656,501.000000 344.000000,501.000000 
M389.457153,252.832001 
	C389.759399,252.645370 389.884766,252.376312 390.304626,251.502396 
	C399.054047,239.511398 400.624298,223.692505 394.363159,214.636719 
	C391.078339,220.800049 387.542999,227.433456 383.586823,234.245972 
	C383.309814,234.436829 383.180786,234.700195 383.049652,235.054443 
	C383.049652,235.054443 383.078156,235.202866 382.567291,235.440002 
	C382.318726,235.932587 382.070160,236.425186 381.923828,236.934525 
	C381.923828,236.934525 381.866730,236.848099 381.283539,237.117020 
	C379.832092,238.674530 378.380615,240.232040 376.427338,242.016785 
	C376.243835,242.321274 376.060364,242.625763 375.967010,242.954727 
	C375.967010,242.954727 375.922729,242.872513 375.398041,243.012924 
	C375.217224,243.309311 375.036377,243.605682 374.949799,243.867142 
	C374.949799,243.867142 374.853882,243.837143 374.253815,243.974884 
	C373.787750,244.607208 373.321655,245.239517 372.884094,245.968735 
	C372.884094,245.968735 372.911194,245.871445 372.386719,246.006882 
	C372.216675,246.310455 372.046631,246.614029 371.957458,246.881927 
	C371.957458,246.881927 371.876831,246.845749 371.294861,246.844788 
	C370.909607,246.899811 370.524384,246.954834 370.082947,246.162399 
	C369.995850,244.743652 369.908752,243.324921 370.188446,241.360855 
	C371.140411,239.920166 372.092407,238.479477 373.003693,236.997955 
	C373.003693,236.997955 373.029358,237.049088 373.523071,236.889420 
	C373.700623,236.603409 373.878174,236.317383 374.001221,236.001312 
	C374.001221,236.001312 374.032104,236.055298 374.525452,235.890686 
	C374.699951,235.602386 374.874451,235.314072 374.999268,235.001572 
	C374.999268,235.001572 375.029053,235.048126 375.491852,234.888000 
	C375.808105,234.673340 375.906921,234.384338 376.118378,233.402313 
	C385.549957,226.313263 393.814453,206.827957 386.543976,195.653915 
	C383.960022,199.649323 381.119080,204.042084 378.271637,207.620316 
	C378.553375,206.495697 378.866882,205.377945 379.112274,204.245468 
	C387.148773,167.156387 395.151581,130.059967 403.220306,92.977913 
	C407.755371,72.135765 412.397705,51.316975 417.134064,29.842358 
	C366.182251,29.842358 315.763245,29.842358 264.964355,29.842358 
	C265.716583,31.055315 266.166107,31.942081 266.761658,32.716568 
	C279.137299,48.810822 291.627777,64.818726 303.796478,81.067688 
	C305.352722,83.145729 306.282684,86.683952 305.757660,89.178413 
	C299.502502,118.895882 292.936829,148.548187 286.411652,178.208557 
	C279.315521,210.464127 272.176422,242.710251 264.408142,275.258575 
	C264.598022,276.543854 264.787903,277.829102 264.299866,279.199371 
	C263.920898,280.467651 263.541931,281.735962 262.951965,283.661896 
	C262.885986,284.117584 262.820007,284.573242 262.170319,284.672913 
	C261.560028,283.328339 260.949707,281.983765 260.029297,279.955933 
	C258.893616,283.091248 257.259583,285.662384 257.141479,288.301361 
	C256.820251,295.479126 257.140533,302.685638 257.104858,310.638641 
	C256.713257,312.104492 256.321655,313.570343 255.289215,314.702057 
	C253.950027,311.007996 252.610840,307.313934 251.271652,303.619904 
	C250.874451,303.527557 250.477234,303.435242 250.080032,303.342896 
	C248.718018,309.178558 246.194107,315.035095 246.298706,320.844360 
	C246.419632,327.561523 248.854980,334.237030 250.071915,341.569244 
	C250.428741,342.345459 250.785583,343.121674 250.753403,344.550873 
	C249.334793,347.443512 246.967896,347.944244 243.904938,347.923035 
	C227.911621,347.812164 211.916733,347.935669 195.922363,347.969849 
	C190.282318,347.981903 184.642227,347.971771 178.838120,347.971771 
	C178.957825,346.425934 178.909042,345.249084 179.155716,344.137787 
	C183.711975,323.611206 188.243469,303.078644 192.950531,282.586456 
	C193.680435,279.408875 193.327621,277.615784 190.253708,275.745270 
	C163.993683,259.765533 137.869934,243.561905 111.695747,227.440933 
	C110.115814,226.467850 108.453209,225.628952 106.834312,224.730530 
	C102.573090,244.270782 98.510094,263.048950 94.379448,281.812256 
	C86.395950,318.077057 78.275658,354.312286 70.493507,390.620117 
	C69.522224,395.151611 69.039551,400.448029 70.434158,404.700012 
	C74.286232,416.444489 84.704262,423.095459 97.060898,423.125610 
	C164.036972,423.289185 231.013000,423.465546 297.989044,423.630615 
	C307.484955,423.654022 316.980927,423.652832 326.476807,423.633820 
	C328.993896,423.628784 331.445923,423.750458 332.081146,420.224182 
	C333.288635,413.520874 334.795532,406.871460 336.876373,399.968506 
	C338.203064,400.420105 339.529755,400.871735 341.253845,401.852753 
	C344.140381,403.633911 347.026947,405.415070 350.228363,407.777313 
	C352.475800,409.202972 354.723267,410.628601 357.241852,412.668091 
	C360.148468,414.803284 363.055084,416.938507 366.213715,419.691467 
	C369.067749,422.154327 371.921814,424.617157 374.975739,427.608124 
	C375.660950,428.229156 376.346161,428.850220 377.197601,429.817322 
	C377.197601,429.817322 377.530029,430.009308 377.800293,430.523193 
	C379.266937,432.114319 380.733582,433.705444 382.546997,435.922180 
	C385.973175,440.746857 389.399353,445.571533 392.922913,451.092773 
	C396.417816,460.517303 399.912689,469.941803 403.501892,479.620636 
	C404.869171,473.440979 406.840393,467.118225 407.585938,460.654144 
	C409.468231,444.334106 406.860413,428.971344 395.935211,415.156616 
	C392.993195,412.006165 390.051178,408.855713 386.870667,405.094574 
	C383.910858,402.729004 380.951019,400.363403 377.965424,397.303284 
	C374.689240,395.047607 371.413086,392.791931 367.691406,390.054138 
	C364.792175,388.389740 361.892944,386.725342 358.567719,384.576385 
	C357.421326,384.031464 356.274902,383.486542 354.934357,382.465912 
	C354.632629,382.369965 354.330933,382.274048 353.575043,381.912354 
	C353.403870,381.874115 353.232666,381.835846 352.722229,381.203796 
	C349.480255,379.532227 346.238281,377.860687 342.634277,375.794861 
	C342.393463,375.532349 342.152649,375.269836 342.056610,374.287720 
	C342.380768,372.864746 342.704926,371.441772 343.745697,369.937103 
	C345.496521,370.622620 347.247314,371.308105 349.377350,372.581207 
	C352.891693,374.441071 356.406036,376.300934 360.242950,378.756958 
	C362.827454,380.170502 365.411957,381.584045 368.345978,383.581177 
	C372.901398,386.698120 377.456818,389.815063 382.368195,393.489136 
	C384.238403,395.003876 386.108643,396.518646 388.231995,398.652069 
	C391.386230,401.804688 394.540466,404.957336 397.948944,408.762054 
	C400.568542,412.529694 403.188141,416.297333 405.941467,420.792572 
	C409.409180,430.542755 412.876892,440.292938 416.041626,449.191223 
	C416.740692,445.298401 417.912750,440.295105 418.499329,435.224091 
	C420.382690,418.943268 418.025513,403.564056 407.946259,389.276123 
	C405.432709,386.229218 402.919159,383.182312 400.112305,379.580780 
	C396.426025,376.331635 392.739777,373.082520 388.764832,369.215637 
	C386.202484,367.462555 383.640137,365.709473 380.745972,363.321564 
	C376.162872,360.615845 371.579773,357.910095 366.412354,354.798462 
	C364.293823,353.807892 362.175293,352.817291 359.728027,351.227386 
	C356.514984,349.724823 353.301941,348.222260 349.736115,346.165161 
	C349.336273,345.424866 348.936401,344.684601 348.846130,343.170319 
	C353.538971,321.427490 358.231812,299.684662 363.256470,277.500061 
	C363.490082,276.997986 363.723724,276.495911 363.999481,276.003540 
	C363.999481,276.003540 364.004150,275.961487 364.492950,275.836121 
	C364.674774,275.562347 364.856567,275.288605 365.670685,274.783447 
	C367.789795,273.189056 369.908905,271.594696 372.645538,269.747803 
	C376.432892,266.170898 380.220245,262.594025 384.586334,258.732666 
	C385.756073,257.231537 386.925812,255.730392 388.563812,253.970917 
	C388.710968,253.654053 388.858124,253.337189 389.003845,253.004028 
	C389.003845,253.004028 389.020142,253.002457 389.457153,252.832001 
z"/>
<path fill="#eee" opacity="1.000000" stroke="#000" 
	d="
M336.178101,400.199677 
	C334.795532,406.871460 333.288635,413.520874 332.081146,420.224182 
	C331.445923,423.750458 328.993896,423.628784 326.476807,423.633820 
	C316.980927,423.652832 307.484955,423.654022 297.989044,423.630615 
	C231.013000,423.465546 164.036972,423.289185 97.060898,423.125610 
	C84.704262,423.095459 74.286232,416.444489 70.434158,404.700012 
	C69.039551,400.448029 69.522224,395.151611 70.493507,390.620117 
	C78.275658,354.312286 86.395950,318.077057 94.379448,281.812256 
	C98.510094,263.048950 102.573090,244.270782 106.834312,224.730530 
	C108.453209,225.628952 110.115814,226.467850 111.695747,227.440933 
	C137.869934,243.561905 163.993683,259.765533 190.253708,275.745270 
	C193.327621,277.615784 193.680435,279.408875 192.950531,282.586456 
	C188.243469,303.078644 183.711975,323.611206 179.155716,344.137787 
	C178.909042,345.249084 178.957825,346.425934 178.838120,347.971771 
	C184.642227,347.971771 190.282318,347.981903 195.922363,347.969849 
	C211.916733,347.935669 227.911621,347.812164 243.904938,347.923035 
	C246.967896,347.944244 249.334793,347.443512 251.255615,344.268494 
	C252.500183,344.321838 253.242508,344.657532 254.076523,345.306854 
	C254.835907,346.394714 255.503632,347.169006 256.247437,348.267853 
	C259.506958,351.113098 262.690399,353.633759 265.916412,356.133362 
	C265.958984,356.112305 265.868195,356.084320 265.946808,356.341614 
	C266.329346,356.769592 266.633240,356.940247 266.942993,357.057678 
	C266.948883,357.004425 266.896301,357.097809 267.034607,357.388428 
	C268.723267,358.814026 270.273682,359.949036 272.009155,361.367310 
	C274.115540,362.785583 276.036835,363.920532 277.981476,365.032684 
	C278.004791,365.009888 277.952240,365.044312 278.109253,365.337158 
	C280.400360,366.807526 282.534454,367.985046 284.882874,369.438019 
	C287.632629,371.192993 290.168030,372.672546 292.922913,374.423889 
	C296.671844,376.513367 300.201233,378.330994 303.940125,380.425323 
	C307.043732,382.167480 309.937866,383.632996 313.011414,385.367371 
	C314.119781,386.099854 315.048706,386.563477 315.985046,387.020874 
	C315.992432,387.014648 315.971985,387.026001 316.172546,387.300690 
	C320.521423,389.751129 324.669739,391.926910 329.008545,394.385956 
	C331.525391,396.512695 333.851746,398.356171 336.178101,400.199677 
z"/>
<path fill="#eee" opacity="1.000000" stroke="none" 
	d="
M265.056061,274.960480 
	C272.176422,242.710251 279.315521,210.464127 286.411652,178.208557 
	C292.936829,148.548187 299.502502,118.895882 305.757660,89.178413 
	C306.282684,86.683952 305.352722,83.145729 303.796478,81.067688 
	C291.627777,64.818726 279.137299,48.810822 266.761658,32.716568 
	C266.166107,31.942081 265.716583,31.055315 264.964355,29.842358 
	C315.763245,29.842358 366.182251,29.842358 417.134064,29.842358 
	C412.397705,51.316975 407.755371,72.135765 403.220306,92.977913 
	C395.151581,130.059967 387.148773,167.156387 379.112274,204.245468 
	C378.866882,205.377945 378.553375,206.495697 378.124146,208.270355 
	C377.318390,209.943329 376.660095,210.966248 375.711578,212.103485 
	C374.591095,213.131927 373.760834,214.046051 372.961060,214.977341 
	C372.991486,214.994507 372.974823,214.926605 372.711975,214.997498 
	C372.258148,215.363632 372.067200,215.658859 371.919342,215.958130 
	C371.962463,215.962158 371.953796,215.875977 371.687988,215.954346 
	C371.229004,216.333359 371.035767,216.634018 370.886780,216.931046 
	C370.931000,216.927429 370.894562,216.846512 370.625183,216.922821 
	C369.868347,217.547409 369.380890,218.095688 368.618347,218.759689 
	C368.130066,219.197723 367.916901,219.520050 367.794983,219.842575 
	C367.886261,219.842758 367.829559,219.669281 367.536194,219.728043 
	C366.831085,220.193848 366.419281,220.600891 366.003754,221.003967 
	C366.000000,221.000000 366.006714,221.008347 365.742279,221.056183 
	C365.272614,221.383698 365.067383,221.663361 364.910034,221.951324 
	C364.957947,221.959625 364.956390,221.862427 364.660461,221.938400 
	C364.093079,222.306366 363.821625,222.598373 363.295715,222.914124 
	C362.691345,223.275497 362.341431,223.613098 361.722595,224.009430 
	C361.246735,224.354889 361.039856,224.641617 360.881531,224.925964 
	C360.930023,224.923599 360.894562,224.833160 360.556030,224.908905 
	C356.814362,227.326279 353.411255,229.667938 349.736450,232.045837 
	C349.233612,232.345154 349.002502,232.608185 348.840515,232.879501 
	C348.909637,232.887772 348.881592,232.751358 348.604187,232.791107 
	C348.088654,233.095749 347.850525,233.360641 347.608215,233.579208 
	C347.604065,233.532883 347.511353,233.524994 347.190491,233.623810 
	C343.587311,235.771927 340.304962,237.821228 336.718994,239.918854 
	C335.576416,240.519867 334.737518,241.072525 333.585999,241.711700 
	C332.770111,242.172546 332.266754,242.546921 331.487610,242.931503 
	C330.796265,243.261002 330.380737,243.580292 329.647278,243.942307 
	C328.450195,244.548569 327.571075,245.112076 326.672668,245.672958 
	C326.653351,245.670334 326.623657,245.643646 326.277771,245.716904 
	C322.205719,247.813232 318.479523,249.836288 314.408752,251.879318 
	C312.041229,252.957352 310.018280,254.015411 307.639954,255.097977 
	C305.187592,256.191772 303.090668,257.261078 300.666046,258.423462 
	C295.892914,260.683014 291.447479,262.849518 286.637085,265.044434 
	C282.171295,267.014954 278.070465,268.957031 273.610229,270.928223 
	C270.519226,272.291779 267.787628,273.626129 265.056061,274.960480 
M310.225433,170.049240 
	C308.647247,172.081680 306.924896,174.019287 305.515167,176.162537 
	C298.447052,186.908142 299.105499,200.830994 307.337708,211.774261 
	C306.165314,213.518463 305.126678,215.377274 303.768768,216.962524 
	C302.992828,217.868362 301.450317,218.117615 300.674622,219.023544 
	C295.149506,225.476166 289.674103,231.973801 284.306335,238.557770 
	C281.506378,241.992142 281.796295,246.464279 284.892365,248.753357 
	C288.457275,251.389069 291.532318,249.917175 294.132080,247.096603 
	C296.500854,244.526642 298.744049,241.830063 300.902588,239.079407 
	C305.935791,232.665619 310.884766,226.185745 315.941406,219.637436 
	C333.480255,226.708679 349.608276,222.354630 357.899658,208.060852 
	C365.130005,195.596222 362.245422,178.126251 351.511536,169.372482 
	C339.084351,159.237793 322.243408,159.481476 310.225433,170.049240 
z"/>
<path fill="#eee" opacity="1.000000" stroke="none" 
	d="
M262.754028,285.028931 
	C262.820007,284.573242 262.885986,284.117584 263.400085,283.332581 
	C264.533325,283.003723 265.218445,283.004211 266.077881,283.326569 
	C267.927521,287.435516 269.602814,291.222626 271.407562,295.302368 
	C273.936523,293.958252 275.626434,293.060089 277.669250,292.124756 
	C281.011475,290.700378 284.000732,289.313263 287.352905,287.916168 
	C291.676636,286.222900 295.637421,284.539612 299.876404,282.834503 
	C300.433441,282.579529 300.712311,282.346344 301.193115,281.961548 
	C301.560242,281.777527 301.725464,281.745148 302.049713,281.984558 
	C302.756958,281.768433 303.305145,281.280518 303.880981,280.848389 
	C303.908661,280.904175 303.796906,280.849274 304.041229,280.830688 
	C304.612305,280.695862 304.846680,280.479553 305.251099,279.973511 
	C306.654755,279.182129 307.795959,278.580322 309.155487,277.914307 
	C309.655060,277.714813 309.880554,277.516266 310.057495,277.154419 
	C310.064667,277.054413 309.970062,276.877563 310.253204,276.968597 
	C310.927765,277.003052 311.319183,276.946442 311.967102,276.862305 
	C312.477783,276.614044 312.731964,276.393280 313.153076,276.041687 
	C313.320038,275.910828 313.744202,275.903229 313.993591,275.874878 
	C314.489227,275.630707 314.735504,275.414917 315.254120,274.992188 
	C316.670288,274.127716 317.814148,273.470184 319.174500,272.848694 
	C319.391052,272.884705 319.827118,272.935822 320.061340,272.898804 
	C320.606964,272.742218 320.834503,272.531952 321.154999,272.091278 
	C321.331787,271.951599 321.781006,271.916229 322.025421,271.879700 
	C322.594940,271.719757 322.832550,271.501221 323.148376,271.053131 
	C323.314117,270.918701 323.740601,270.902008 323.993530,270.870422 
	C324.492310,270.615112 324.738159,270.391357 325.216492,269.964905 
	C326.200378,269.459381 326.951752,269.156586 328.092896,268.892487 
	C330.305908,269.133942 333.313538,266.838043 333.164764,271.144775 
	C333.145294,271.129730 333.187897,271.129761 332.943604,271.160522 
	C332.376770,271.320404 332.147278,271.544678 331.869263,271.990601 
	C331.727783,272.117126 331.348511,272.132629 331.074554,272.165436 
	C330.535065,272.441345 330.269531,272.684448 329.894775,273.049255 
	C329.785614,273.170929 329.458862,273.158630 329.163818,273.184692 
	C328.578491,273.463898 328.288239,273.717041 327.994324,273.989868 
	C327.990692,274.009521 327.958740,273.985504 327.661743,273.999512 
	C326.912201,274.349823 326.459656,274.686096 325.830933,275.258362 
	C325.111328,275.685730 324.567932,275.877136 323.853455,275.828674 
	C323.142639,276.093201 322.602905,276.597565 322.048462,277.057678 
	C322.033813,277.013428 322.110657,277.066223 321.886292,277.104919 
	C321.366089,277.265381 321.152130,277.471954 320.731598,277.965118 
	C318.213989,279.396698 315.984772,280.626465 313.406921,281.909637 
	C309.692139,283.635712 306.325958,285.308411 302.601929,286.973358 
	C299.781952,288.155304 297.319855,289.344971 294.497070,290.645752 
	C287.923737,293.386261 281.711121,296.015656 274.079590,299.245575 
	C281.105865,303.920288 287.051300,307.875885 293.321289,311.956360 
	C296.445312,311.092255 299.244751,310.103271 302.422424,309.078064 
	C308.623444,306.400116 314.446198,303.758423 320.619812,301.089081 
	C325.238281,298.815338 329.505920,296.569214 334.086761,294.253632 
	C336.923584,292.747498 339.447205,291.310791 342.312561,289.831360 
	C345.508423,287.997772 348.362549,286.206879 351.555939,284.307129 
	C355.571686,282.112793 359.248169,280.027313 362.924652,277.941833 
	C358.231812,299.684662 353.538971,321.427490 348.328796,343.558105 
	C344.871246,342.973511 341.931000,342.001190 338.817291,340.789337 
	C338.091797,340.379456 337.539825,340.209076 336.789978,339.772095 
	C335.740173,339.316010 334.888245,339.126465 333.803223,338.678558 
	C329.385925,336.606506 325.201691,334.792816 321.011017,332.987854 
	C321.004578,332.996582 321.015442,332.982849 320.828918,332.712646 
	C319.428253,331.962128 318.214111,331.481781 316.723022,330.844238 
	C315.656097,330.401886 314.866150,330.116699 313.884277,329.612061 
	C313.136963,329.239319 312.581543,329.086029 311.828308,328.674835 
	C310.435089,327.911133 309.239716,327.405334 307.824036,326.643066 
	C304.731903,324.931793 301.860138,323.476990 298.993896,322.010254 
	C298.999390,321.998322 298.976532,322.012695 298.808228,321.773926 
	C298.090393,321.386139 297.540863,321.237061 296.832031,320.871399 
	C296.375702,320.459290 296.078613,320.263733 295.725220,319.757690 
	C294.769440,318.998352 293.870026,318.549438 292.826660,317.834564 
	C292.114471,317.399628 291.546204,317.230713 290.822815,316.765198 
	C289.440948,315.997040 288.214233,315.525482 286.820831,314.809509 
	C286.120758,314.351196 285.587402,314.137268 285.021606,313.945862 
	C284.989197,313.968384 285.062958,313.944214 284.903198,313.686584 
	C284.202332,313.159424 283.661194,312.889893 282.940369,312.360352 
	C281.213501,311.026184 279.666290,309.951996 278.110291,308.892029 
	C278.101440,308.906189 278.095001,308.913757 277.965515,308.612610 
	C276.620544,307.389191 275.405121,306.466858 274.099670,305.296936 
	C273.615143,304.719879 273.220581,304.390472 272.736969,303.757172 
	C271.461121,302.241455 270.274261,301.029663 268.976135,299.550659 
	C268.303467,298.766205 267.742065,298.248871 267.109314,297.385773 
	C265.609955,293.036285 264.181976,289.032623 262.754028,285.028931 
z"/>
<path fill="#05090C" opacity="1.000000" stroke="none" 
	d="
M396.069336,415.812439 
	C406.860413,428.971344 409.468231,444.334106 407.585938,460.654144 
	C406.840393,467.118225 404.869171,473.440979 403.501892,479.620636 
	C399.912689,469.941803 396.417816,460.517303 393.036133,450.385742 
	C393.519592,447.572205 394.335052,445.426239 394.152679,443.368713 
	C393.897156,440.486023 392.062103,437.569916 392.385681,434.844116 
	C393.145447,428.444672 394.785553,422.149689 396.069336,415.812439 
z"/>
<path fill="#eee" opacity="1.000000" stroke="#000" 
	d="
M343.029053,370.018829 
	C342.704926,371.441772 342.380768,372.864746 341.631897,374.600159 
	C337.131775,372.981110 333.056366,371.049652 328.635040,369.050171 
	C325.855011,367.674957 323.420898,366.367676 320.680603,364.890015 
	C316.925995,363.116333 313.477661,361.513092 309.786652,359.653168 
	C306.051117,357.874542 302.558197,356.352631 298.956573,354.630402 
	C298.631134,354.202820 298.370209,354.052032 297.960205,353.743164 
	C297.581360,353.319580 297.307434,353.130493 297.018280,352.970459 
	C297.003082,352.999542 297.057953,352.963593 296.952209,352.751343 
	C296.634277,352.278534 296.360504,352.137970 295.748535,351.945282 
	C294.327057,351.159271 293.182190,350.545349 291.832153,349.665619 
	C285.782288,345.534546 279.937622,341.669342 273.916321,337.535767 
	C272.122986,335.858307 270.506287,334.449280 268.773438,332.732361 
	C266.781647,330.929657 264.906006,329.434875 262.910828,327.646149 
	C261.818420,326.232697 260.845581,325.113190 259.815979,323.673584 
	C258.032593,320.788361 254.228821,319.179474 255.930054,315.036194 
	C256.321655,313.570343 256.713257,312.104492 257.407654,310.473572 
	C258.834076,311.880737 259.957672,313.452942 261.119385,315.285889 
	C261.403442,315.788208 261.649353,316.029755 261.963196,316.588013 
	C263.045197,318.265198 264.059265,319.625610 265.163666,321.306519 
	C268.481506,324.765900 271.709045,327.904785 275.022125,331.287292 
	C275.394043,331.704407 275.680389,331.877899 276.116058,332.339325 
	C277.797760,333.770966 279.330109,334.914612 280.974426,336.293060 
	C281.387390,336.682617 281.688416,336.837372 281.993011,336.996704 
	C281.996552,337.001251 282.008850,337.006958 282.193420,337.285034 
	C286.910797,340.380249 291.443573,343.197388 296.179688,346.286499 
	C300.156708,348.424774 303.930481,350.291107 307.930115,352.428528 
	C312.023071,354.516144 315.890167,356.332703 319.980865,358.427124 
	C323.095459,359.826202 325.986450,360.947449 329.088196,362.321991 
	C330.512939,363.061340 331.726959,363.547394 333.116425,364.273804 
	C333.845276,364.697418 334.398712,364.880646 334.949341,365.068390 
	C334.946594,365.072906 334.922211,365.097198 335.132263,365.365540 
	C337.904572,367.095551 340.466827,368.557190 343.029053,370.018829 
z"/>
<path fill="#05090C" opacity="1.000000" stroke="none" 
	d="
M408.123169,389.950989 
	C418.025513,403.564056 420.382690,418.943268 418.499329,435.224091 
	C417.912750,440.295105 416.740692,445.298401 416.041626,449.191223 
	C412.876892,440.292938 409.409180,430.542755 406.160309,420.398743 
	C406.930511,414.332489 407.691315,408.669617 407.949524,402.983856 
	C408.089783,399.895020 407.241455,396.772827 407.113129,393.654419 
	C407.062958,392.435883 407.764191,391.186371 408.123169,389.950989 
z"/>
<path fill="#F56363" opacity="1.000000" stroke="none" 
	d="
M384.007660,234.066849 
	C387.542999,227.433456 391.078339,220.800049 394.363159,214.636719 
	C400.624298,223.692505 399.054047,239.511398 389.878601,251.874939 
	C389.219727,252.448303 389.075562,252.699951 389.020142,253.002457 
	C389.020142,253.002457 389.003845,253.004028 388.770447,253.141876 
	C388.389893,253.596237 388.242737,253.912750 388.095581,254.229248 
	C386.925812,255.730392 385.756073,257.231537 383.913940,258.785583 
	C382.173889,253.512161 380.854553,248.217682 380.174347,242.842346 
	C379.934387,240.946014 381.257324,238.851898 381.866699,236.848099 
	C381.866730,236.848099 381.923828,236.934525 382.144989,236.826477 
	C382.603485,236.213257 382.840820,235.708054 383.078156,235.202866 
	C383.078156,235.202866 383.049652,235.054443 383.304810,234.925629 
	C383.782471,234.598450 383.931732,234.355133 384.007660,234.066849 
z"/>
<path fill="#F56363" opacity="1.000000" stroke="none" 
	d="
M376.001831,211.989166 
	C376.660095,210.966248 377.318390,209.943329 378.127380,208.677628 
	C381.119080,204.042084 383.960022,199.649323 386.543976,195.653915 
	C393.814453,206.827957 385.549957,226.313263 375.769226,233.834961 
	C375.196625,234.481094 375.066254,234.741272 375.029053,235.048126 
	C375.029053,235.048126 374.999268,235.001572 374.789246,235.111633 
	C374.396881,235.499573 374.214478,235.777435 374.032104,236.055298 
	C374.032104,236.055298 374.001221,236.001312 373.792542,236.111328 
	C373.399017,236.497269 373.214172,236.773178 373.029358,237.049072 
	C373.029358,237.049088 373.003693,236.997955 372.638245,237.002716 
	C370.879517,236.581863 369.486267,236.156235 368.200745,235.763504 
	C369.540619,232.805527 371.232513,230.600433 371.439880,228.263596 
	C371.773499,224.503632 371.126984,220.656708 370.894562,216.846512 
	C370.894562,216.846512 370.931000,216.927429 371.144714,216.842133 
	C371.556854,216.463226 371.755341,216.169601 371.953796,215.875977 
	C371.953796,215.875977 371.962463,215.962158 372.167725,215.865906 
	C372.573578,215.488632 372.774200,215.207611 372.974823,214.926605 
	C372.974823,214.926605 372.991486,214.994507 373.338501,214.983261 
	C374.457642,213.977737 375.229736,212.983459 376.001831,211.989166 
z"/>
<path fill="#030E16" opacity="1.000000" stroke="none" 
	d="
M396.002258,415.484528 
	C394.785553,422.149689 393.145447,428.444672 392.385681,434.844116 
	C392.062103,437.569916 393.897156,440.486023 394.152679,443.368713 
	C394.335052,445.426239 393.519592,447.572205 392.987457,450.037445 
	C389.399353,445.571533 385.973175,440.746857 382.755859,435.422241 
	C383.296417,433.542114 383.755798,432.178558 383.938782,430.778900 
	C385.030945,422.425659 386.059326,414.064087 387.109131,405.705292 
	C390.051178,408.855713 392.993195,412.006165 396.002258,415.484528 
z"/>
<path fill="#052030" opacity="1.000000" stroke="none" 
	d="
M366.996704,355.204346 
	C371.579773,357.910095 376.162872,360.615845 380.620544,363.886353 
	C381.000824,373.944763 381.506531,383.438385 382.012238,392.931976 
	C377.456818,389.815063 372.901398,386.698120 368.321167,382.985962 
	C371.176331,379.620117 371.137085,376.802551 368.871735,374.803497 
	C369.966400,371.193970 370.753998,368.264069 371.745850,365.404968 
	C373.202148,361.207123 370.287231,359.496033 367.605316,357.492432 
	C367.109375,357.121948 367.184906,355.986633 366.996704,355.204346 
z"/>
<path fill="#041B28" opacity="1.000000" stroke="none" 
	d="
M368.136902,390.536285 
	C371.413086,392.791931 374.689240,395.047607 377.613068,397.658539 
	C376.845764,399.184174 375.876373,400.479309 376.107056,401.504395 
	C377.472473,407.571808 378.173248,413.489532 374.269531,418.899780 
	C380.197235,424.483948 380.795715,426.585632 377.530029,430.009308 
	C377.530029,430.009308 377.197601,429.817322 377.335632,429.315491 
	C376.574371,428.235779 375.675110,427.657898 374.775848,427.080017 
	C371.921814,424.617157 369.067749,422.154327 366.243286,419.026550 
	C366.894226,409.086487 367.515564,399.811401 368.136902,390.536285 
z"/>
<path fill="#1370A8" opacity="1.000000" stroke="none" 
	d="
M261.081268,315.025146 
	C259.957672,313.452942 258.834076,311.880737 257.458496,310.094604 
	C257.140533,302.685638 256.820251,295.479126 257.141479,288.301361 
	C257.259583,285.662384 258.893616,283.091248 260.029297,279.955933 
	C260.949707,281.983765 261.560028,283.328339 262.462158,284.850922 
	C264.181976,289.032623 265.609955,293.036285 266.894073,297.704895 
	C266.226837,299.467896 265.703430,300.566040 265.179993,301.664185 
	C266.455536,302.107025 267.731018,302.549866 269.005981,303.243591 
	C269.004486,303.661774 269.003479,303.829071 268.997986,304.400818 
	C267.618927,306.393616 266.244354,307.981964 264.286469,310.244293 
	C264.727539,311.035797 265.782715,312.661377 266.566711,314.408630 
	C267.421356,316.313416 268.024567,318.330994 268.871674,320.670166 
	C267.314819,320.799622 266.194092,320.892822 265.073334,320.986023 
	C264.059265,319.625610 263.045197,318.265198 261.922058,316.325684 
	C261.569092,315.506134 261.325165,315.265625 261.081268,315.025146 
z"/>
<path fill="#04121A" opacity="1.000000" stroke="none" 
	d="
M397.694672,408.109985 
	C394.540466,404.957336 391.386230,401.804688 388.310883,398.080414 
	C392.741150,396.618134 391.718933,393.259888 391.622711,390.374756 
	C391.528534,387.550354 391.379120,384.725372 391.155914,381.908417 
	C390.956329,379.389526 390.715790,376.866333 390.314850,374.373749 
	C390.066956,372.832520 389.485321,371.345001 389.053497,369.833374 
	C392.739777,373.082520 396.426025,376.331635 400.138916,380.338928 
	C400.109589,387.609192 400.257629,394.132690 399.895294,400.627686 
	C399.754303,403.154816 398.462341,405.617798 397.694672,408.109985 
z"/>
<path fill="#072E46" opacity="1.000000" stroke="none" 
	d="
M350.088898,346.719696 
	C353.301941,348.222260 356.514984,349.724823 359.907928,351.907532 
	C362.572968,357.554321 363.720886,362.394226 359.976990,367.459351 
	C359.317902,368.351044 359.876617,371.329376 360.831512,372.021332 
	C364.881500,374.956177 362.242401,376.436981 359.920380,378.160797 
	C356.406036,376.300934 352.891693,374.441071 349.200195,371.891724 
	C349.668182,368.071777 350.782013,364.951660 350.851288,361.808533 
	C350.962006,356.786957 350.378754,351.750092 350.088898,346.719696 
z"/>
<path fill="#1370A8" opacity="1.000000" stroke="none" 
	d="
M255.609634,314.869141 
	C254.228821,319.179474 258.032593,320.788361 259.464783,323.720367 
	C255.803345,325.523285 254.063278,328.284149 255.140579,331.618103 
	C256.501373,335.829407 254.896988,338.493408 251.710754,340.993286 
	C251.045258,340.973450 250.665375,340.952026 250.285492,340.930603 
	C248.854980,334.237030 246.419632,327.561523 246.298706,320.844360 
	C246.194107,315.035095 248.718018,309.178558 250.080032,303.342896 
	C250.477234,303.435242 250.874451,303.527557 251.271652,303.619904 
	C252.610840,307.313934 253.950027,311.007996 255.609634,314.869141 
z"/>
<path fill="#041824" opacity="1.000000" stroke="none" 
	d="
M388.909180,369.524506 
	C389.485321,371.345001 390.066956,372.832520 390.314850,374.373749 
	C390.715790,376.866333 390.956329,379.389526 391.155914,381.908417 
	C391.379120,384.725372 391.528534,387.550354 391.622711,390.374756 
	C391.718933,393.259888 392.741150,396.618134 388.184326,397.771057 
	C386.108643,396.518646 384.238403,395.003876 382.190216,393.210571 
	C381.506531,383.438385 381.000824,373.944763 380.786438,364.203766 
	C383.640137,365.709473 386.202484,367.462555 388.909180,369.524506 
z"/>
<path fill="#E78182" opacity="1.000000" stroke="none" 
	d="
M363.090576,277.720947 
	C359.248169,280.027313 355.571686,282.112793 351.375977,284.000183 
	C348.988403,283.403015 347.120056,283.003906 345.896179,282.742462 
	C346.203918,279.882111 347.371307,277.168610 346.483673,275.682831 
	C344.247803,271.940186 344.367249,268.497742 345.863342,264.808838 
	C345.894379,264.859497 345.776642,264.875488 346.040771,264.822021 
	C346.542450,264.510071 346.780029,264.251617 347.206665,263.710083 
	C351.268250,260.987122 355.140808,258.547211 359.006927,256.452637 
	C355.324524,263.323669 357.657806,269.943146 358.743164,276.802521 
	C360.472839,276.534271 362.215088,276.264038 363.957367,275.993835 
	C363.723724,276.495911 363.490082,276.997986 363.090576,277.720947 
z"/>
<path fill="#EA7878" opacity="1.000000" stroke="none" 
	d="
M363.978424,275.998688 
	C362.215088,276.264038 360.472839,276.534271 358.743164,276.802521 
	C357.657806,269.943146 355.324524,263.323669 359.204773,256.176422 
	C362.136780,253.610229 364.864532,251.665604 367.708557,250.119781 
	C368.177856,251.776810 368.192139,253.306808 368.944611,254.244537 
	C371.689484,257.665466 371.845367,260.907593 369.515900,264.671936 
	C367.927246,267.239136 369.421021,269.049194 372.028015,270.000305 
	C369.908905,271.594696 367.789795,273.189056 365.127991,274.990356 
	C364.300171,275.382477 364.106445,275.637207 364.004150,275.961487 
	C364.004150,275.961487 363.999481,276.003540 363.978424,275.998688 
z"/>
<path fill="#05263A" opacity="1.000000" stroke="none" 
	d="
M356.970703,412.054260 
	C354.723267,410.628601 352.475800,409.202972 350.095459,407.060913 
	C349.628235,398.828064 349.293915,391.311646 348.939178,383.336304 
	C349.867554,382.989777 351.464508,382.393677 353.061493,381.797577 
	C353.232666,381.835846 353.403870,381.874115 353.932312,382.239624 
	C354.520935,382.799835 354.800568,382.924774 355.128510,382.941650 
	C356.274902,383.486542 357.421326,384.031464 358.788330,385.184753 
	C360.229828,387.575592 361.450714,389.358063 362.947571,391.543488 
	C358.411346,394.275909 358.161743,398.953827 359.245026,403.211792 
	C360.205170,406.985626 359.308990,409.512390 356.970703,412.054260 
z"/>
<path fill="#F56C6C" opacity="1.000000" stroke="none" 
	d="
M372.336792,269.874054 
	C369.421021,269.049194 367.927246,267.239136 369.515900,264.671936 
	C371.845367,260.907593 371.689484,257.665466 368.944611,254.244537 
	C368.192139,253.306808 368.177856,251.776810 367.748566,250.131256 
	C367.672302,249.743927 367.718384,249.812332 368.002319,249.769592 
	C368.497681,249.424103 368.709106,249.121353 368.915833,248.866150 
	C368.911102,248.913696 368.826691,248.868866 369.202789,248.910004 
	C370.344849,248.249329 371.110840,247.547531 371.876831,246.845749 
	C371.876831,246.845749 371.957458,246.881927 372.169556,246.818024 
	C372.558167,246.459915 372.734680,246.165680 372.911194,245.871445 
	C372.911194,245.871445 372.884094,245.968735 373.217072,245.924377 
	C373.984650,245.199066 374.419250,244.518097 374.853882,243.837128 
	C374.853882,243.837143 374.949799,243.867142 375.159485,243.808899 
	C375.553711,243.457962 375.738220,243.165237 375.922729,242.872513 
	C375.922729,242.872513 375.967010,242.954727 376.181366,242.842636 
	C376.573517,242.416870 376.751343,242.103210 376.929138,241.789551 
	C378.380615,240.232040 379.832092,238.674530 381.575134,236.982559 
	C381.257324,238.851898 379.934387,240.946014 380.174347,242.842346 
	C380.854553,248.217682 382.173889,253.512161 383.624573,258.927795 
	C380.220245,262.594025 376.432892,266.170898 372.336792,269.874054 
z"/>
<path fill="#04141F" opacity="1.000000" stroke="none" 
	d="
M377.665161,430.266235 
	C380.795715,426.585632 380.197235,424.483948 374.269531,418.899780 
	C378.173248,413.489532 377.472473,407.571808 376.107056,401.504395 
	C375.876373,400.479309 376.845764,399.184174 377.625977,398.005798 
	C380.951019,400.363403 383.910858,402.729004 386.989868,405.399933 
	C386.059326,414.064087 385.030945,422.425659 383.938782,430.778900 
	C383.755798,432.178558 383.296417,433.542114 382.582458,435.109436 
	C380.733582,433.705444 379.266937,432.114319 377.665161,430.266235 
z"/>
<path fill="#07324C" opacity="1.000000" stroke="none" 
	d="
M328.980988,369.118164 
	C333.056366,371.049652 337.131775,372.981110 341.559509,374.959961 
	C342.152649,375.269836 342.393463,375.532349 342.817017,376.383728 
	C342.993927,379.371277 343.180359,381.789062 342.944092,384.164856 
	C342.374054,389.897400 344.825806,396.009186 340.856476,401.323364 
	C339.529755,400.871735 338.203064,400.420105 336.527222,400.084106 
	C333.851746,398.356171 331.525391,396.512695 329.438965,394.350586 
	C331.110596,393.344788 333.543854,392.917053 333.800659,391.925598 
	C334.908722,387.647552 335.718597,383.130981 330.716156,379.907104 
	C332.780792,378.473969 334.384216,377.360962 335.826996,376.359467 
	C333.301453,373.688110 331.141205,371.403137 328.980988,369.118164 
z"/>
<path fill="#F26C6D" opacity="1.000000" stroke="none" 
	d="
M370.625183,216.922821 
	C371.126984,220.656708 371.773499,224.503632 371.439880,228.263596 
	C371.232513,230.600433 369.540619,232.805527 368.200745,235.763504 
	C369.486267,236.156235 370.879517,236.581863 372.658569,237.023148 
	C372.092407,238.479477 371.140411,239.920166 369.673706,241.674866 
	C367.180328,243.362244 365.201721,244.735626 362.870483,245.953217 
	C357.240051,243.730103 359.214203,239.386688 359.304535,235.618942 
	C359.353088,233.594574 359.313202,231.568069 359.313202,229.542511 
	C359.092438,229.560013 358.871674,229.577499 358.650940,229.595001 
	C359.398804,228.007721 360.146698,226.420441 360.894562,224.833160 
	C360.894562,224.833160 360.930023,224.923599 361.138550,224.849030 
	C361.561859,224.499863 361.776703,224.225281 361.991547,223.950684 
	C362.341431,223.613098 362.691345,223.275497 363.601593,222.854156 
	C364.426758,222.467743 364.691559,222.165070 364.956360,221.862427 
	C364.956390,221.862427 364.957947,221.959625 365.157166,221.873199 
	C365.573181,221.527283 365.789948,221.267822 366.006714,221.008347 
	C366.006714,221.008347 366.000000,221.000000 366.320312,220.971649 
	C367.036926,220.518616 367.433228,220.093948 367.829559,219.669281 
	C367.829559,219.669281 367.886261,219.842758 368.094147,219.761414 
	C368.499176,219.334686 368.696289,218.989334 368.893433,218.643982 
	C369.380890,218.095688 369.868347,217.547409 370.625183,216.922821 
z"/>
<path fill="#eee" opacity="1.000000" stroke="none" 
	d="
M363.223083,246.109009 
	C365.201721,244.735626 367.180328,243.362244 369.490295,241.947510 
	C369.908752,243.324921 369.995850,244.743652 369.903473,246.787537 
	C369.424896,247.898087 369.125793,248.383469 368.826691,248.868866 
	C368.826691,248.868866 368.911102,248.913696 368.639893,248.932007 
	C368.151947,249.237656 367.935150,249.524994 367.718384,249.812332 
	C367.718384,249.812332 367.672302,249.743927 367.632263,249.732452 
	C364.864532,251.665604 362.136780,253.610229 359.211182,255.831085 
	C355.140808,258.547211 351.268250,260.987122 346.932007,263.750366 
	C346.237762,264.340973 346.007202,264.608215 345.776642,264.875488 
	C345.776642,264.875488 345.894379,264.859497 345.542603,264.861023 
	C344.125824,265.584290 343.060822,266.306000 341.694916,267.060455 
	C341.103363,267.358307 340.812714,267.623413 340.249878,267.904266 
	C339.552948,268.223663 339.128204,268.527313 338.371826,268.892303 
	C336.421509,269.689056 334.802887,270.424438 333.184235,271.159851 
	C333.313538,266.838043 330.305908,269.133942 328.215271,268.654968 
	C328.367279,268.059052 328.786652,267.739410 329.518677,267.323669 
	C330.562042,266.762787 331.292755,266.297974 332.286255,265.819946 
	C332.784332,265.560760 333.019623,265.314850 333.591797,265.027039 
	C335.977173,263.672180 338.025696,262.359314 340.041504,261.027771 
	C340.008759,261.009094 340.032654,261.080566 340.274414,261.028931 
	C340.516205,260.977264 340.973694,260.789673 341.315857,260.780731 
	C345.489227,258.217499 349.320404,255.663208 353.105469,253.092651 
	C353.059296,253.076385 353.090057,253.169327 353.332947,253.114441 
	C353.575836,253.059540 353.944489,252.724716 354.258362,252.631500 
	C357.455841,250.395172 360.339478,248.252090 363.223083,246.109009 
z"/>
<path fill="#040C11" opacity="1.000000" stroke="none" 
	d="
M397.821808,408.436035 
	C398.462341,405.617798 399.754303,403.154816 399.895294,400.627686 
	C400.257629,394.132690 400.109589,387.609192 400.285583,380.616272 
	C402.919159,383.182312 405.432709,386.229218 408.034729,389.613556 
	C407.764191,391.186371 407.062958,392.435883 407.113129,393.654419 
	C407.241455,396.772827 408.089783,399.895020 407.949524,402.983856 
	C407.691315,408.669617 406.930511,414.332489 406.093445,420.034943 
	C403.188141,416.297333 400.568542,412.529694 397.821808,408.436035 
M402.410950,390.482605 
	C402.410950,390.482605 402.522797,390.415649 402.410950,390.482605 
z"/>
<path fill="#05263A" opacity="1.000000" stroke="none" 
	d="
M360.081665,378.458862 
	C362.242401,376.436981 364.881500,374.956177 360.831512,372.021332 
	C359.876617,371.329376 359.317902,368.351044 359.976990,367.459351 
	C363.720886,362.394226 362.572968,357.554321 360.072296,352.207214 
	C362.175293,352.817291 364.293823,353.807892 366.704529,355.001404 
	C367.184906,355.986633 367.109375,357.121948 367.605316,357.492432 
	C370.287231,359.496033 373.202148,361.207123 371.745850,365.404968 
	C370.753998,368.264069 369.966400,371.193970 368.871735,374.803497 
	C371.137085,376.802551 371.176331,379.620117 368.146393,382.694153 
	C365.411957,381.584045 362.827454,380.170502 360.081665,378.458862 
z"/>
<path fill="#052030" opacity="1.000000" stroke="none" 
	d="
M357.106262,412.361176 
	C359.308990,409.512390 360.205170,406.985626 359.245026,403.211792 
	C358.161743,398.953827 358.411346,394.275909 362.947571,391.543488 
	C361.450714,389.358063 360.229828,387.575592 359.001343,385.427002 
	C361.892944,386.725342 364.792175,388.389740 367.914154,390.295227 
	C367.515564,399.811401 366.894226,409.086487 366.117310,418.717651 
	C363.055084,416.938507 360.148468,414.803284 357.106262,412.361176 
z"/>
<path fill="#07324C" opacity="1.000000" stroke="none" 
	d="
M349.912506,346.442444 
	C350.378754,351.750092 350.962006,356.786957 350.851288,361.808533 
	C350.782013,364.951660 349.668182,368.071777 349.010590,371.597900 
	C347.247314,371.308105 345.496521,370.622620 343.387390,369.977966 
	C340.466827,368.557190 337.904572,367.095551 335.579529,365.332764 
	C338.709534,365.031586 341.602295,365.031586 345.074432,365.031586 
	C344.123047,360.789886 341.260071,356.131104 346.750275,351.919525 
	C340.853760,350.763489 344.336029,347.736816 344.570862,345.252228 
	C341.676300,344.943848 338.205017,345.512299 338.990784,341.028839 
	C341.931000,342.001190 344.871246,342.973511 348.174011,343.945068 
	C348.936401,344.684601 349.336273,345.424866 349.912506,346.442444 
z"/>
<path fill="#072E46" opacity="1.000000" stroke="none" 
	d="
M341.055176,401.588043 
	C344.825806,396.009186 342.374054,389.897400 342.944092,384.164856 
	C343.180359,381.789062 342.993927,379.371277 342.998047,376.580872 
	C346.238281,377.860687 349.480255,379.532227 352.891846,381.500671 
	C351.464508,382.393677 349.867554,382.989777 348.939178,383.336304 
	C349.293915,391.311646 349.628235,398.828064 349.937988,406.770355 
	C347.026947,405.415070 344.140381,403.633911 341.055176,401.588043 
z"/>
<path fill="#C6C0C1" opacity="1.000000" stroke="none" 
	d="
M277.316345,292.161957 
	C275.626434,293.060089 273.936523,293.958252 271.407562,295.302368 
	C269.602814,291.222626 267.927521,287.435516 266.124054,282.977356 
	C265.656525,281.242310 265.317169,280.178345 264.977814,279.114380 
	C264.787903,277.829102 264.598022,276.543854 264.732117,275.109528 
	C267.787628,273.626129 270.519226,272.291779 273.583862,271.305237 
	C272.946777,274.763336 271.520996,277.827240 271.197998,281.003357 
	C271.035522,282.600739 273.937805,284.652191 273.605255,286.062225 
	C272.733307,289.759033 275.280518,290.647400 277.316345,292.161957 
z"/>
<path fill="#0B5F92" opacity="1.000000" stroke="none" 
	d="
M250.178711,341.249939 
	C250.665375,340.952026 251.045258,340.973450 251.713394,340.998749 
	C252.001648,341.002655 252.010803,341.009460 252.112656,341.223389 
	C252.410858,341.700195 252.666611,341.877441 253.109985,342.265808 
	C253.487076,343.372833 253.735962,344.183044 253.984848,344.993256 
	C253.242508,344.657532 252.500183,344.321838 251.450134,343.942017 
	C250.785583,343.121674 250.428741,342.345459 250.178711,341.249939 
z"/>
<path fill="#0F0708" opacity="1.000000" stroke="none" 
	d="
M264.638855,279.156860 
	C265.317169,280.178345 265.656525,281.242310 265.949707,282.655518 
	C265.218445,283.004211 264.533325,283.003723 263.505615,283.003723 
	C263.541931,281.735962 263.920898,280.467651 264.638855,279.156860 
z"/>
<path fill="#04141F" opacity="1.000000" stroke="none" 
	d="
M374.875793,427.344055 
	C375.675110,427.657898 376.574371,428.235779 377.252502,429.142456 
	C376.346161,428.850220 375.660950,428.229156 374.875793,427.344055 
z"/>
<path fill="#EA7878" opacity="1.000000" stroke="none" 
	d="
M369.202789,248.910004 
	C369.125793,248.383469 369.424896,247.898087 369.931580,247.211273 
	C370.524384,246.954834 370.909607,246.899811 371.585846,246.845276 
	C371.110840,247.547531 370.344849,248.249329 369.202789,248.910004 
z"/>
<path fill="#EA7878" opacity="1.000000" stroke="none" 
	d="
M374.553833,243.906006 
	C374.419250,244.518097 373.984650,245.199066 373.202820,245.875946 
	C373.321655,245.239517 373.787750,244.607208 374.553833,243.906006 
z"/>
<path fill="#F56C6C" opacity="1.000000" stroke="none" 
	d="
M382.822723,235.321442 
	C382.840820,235.708054 382.603485,236.213257 382.093872,236.818115 
	C382.070160,236.425186 382.318726,235.932587 382.822723,235.321442 
z"/>
<path fill="#EA7878" opacity="1.000000" stroke="none" 
	d="
M372.648956,245.939163 
	C372.734680,246.165680 372.558167,246.459915 372.129089,246.835861 
	C372.046631,246.614029 372.216675,246.310455 372.648956,245.939163 
z"/>
<path fill="#EA7878" opacity="1.000000" stroke="none" 
	d="
M375.660400,242.942719 
	C375.738220,243.165237 375.553711,243.457962 375.112366,243.826370 
	C375.036377,243.605682 375.217224,243.309311 375.660400,242.942719 
z"/>
<path fill="#EA7878" opacity="1.000000" stroke="none" 
	d="
M376.678223,241.903168 
	C376.751343,242.103210 376.573517,242.416870 376.136292,242.830399 
	C376.060364,242.625763 376.243835,242.321274 376.678223,241.903168 
z"/>
<path fill="#F26C6D" opacity="1.000000" stroke="none" 
	d="
M373.276184,236.969238 
	C373.214172,236.773178 373.399017,236.497269 373.819763,236.126358 
	C373.878174,236.317383 373.700623,236.603409 373.276184,236.969238 
z"/>
<path fill="#F26C6D" opacity="1.000000" stroke="none" 
	d="
M374.278778,235.972992 
	C374.214478,235.777435 374.396881,235.499573 374.814087,235.123749 
	C374.874451,235.314072 374.699951,235.602386 374.278778,235.972992 
z"/>
<path fill="#F56C6C" opacity="1.000000" stroke="none" 
	d="
M383.797241,234.156403 
	C383.931732,234.355133 383.782471,234.598450 383.379822,234.916428 
	C383.180786,234.700195 383.309814,234.436829 383.797241,234.156403 
z"/>
<path fill="#F26C6D" opacity="1.000000" stroke="none" 
	d="
M375.260437,234.968063 
	C375.066254,234.741272 375.196625,234.481094 375.604187,234.144287 
	C375.906921,234.384338 375.808105,234.673340 375.260437,234.968063 
z"/>
<path fill="#072E46" opacity="1.000000" stroke="none" 
	d="
M355.031433,382.703796 
	C354.800568,382.924774 354.520935,382.799835 354.159363,382.372498 
	C354.330933,382.274048 354.632629,382.369965 355.031433,382.703796 
z"/>
<path fill="#E78182" opacity="1.000000" stroke="none" 
	d="
M364.248535,275.898804 
	C364.106445,275.637207 364.300171,275.382477 364.811859,275.106049 
	C364.856567,275.288605 364.674774,275.562347 364.248535,275.898804 
z"/>
<path fill="#F56C6C" opacity="1.000000" stroke="none" 
	d="
M388.329712,254.100098 
	C388.242737,253.912750 388.389893,253.596237 388.771179,253.150024 
	C388.858124,253.337189 388.710968,253.654053 388.329712,254.100098 
z"/>
<path fill="#F56C6C" opacity="1.000000" stroke="none" 
	d="
M389.238647,252.917236 
	C389.075562,252.699951 389.219727,252.448303 389.642914,252.136169 
	C389.884766,252.376312 389.759399,252.645370 389.238647,252.917236 
z"/>
<path fill="#0A689E" opacity="1.000000" stroke="none" 
	d="
M254.076523,345.306854 
	C253.735962,344.183044 253.487076,343.372833 253.006195,342.053955 
	C252.579483,341.281586 252.325027,341.102966 252.010803,341.009460 
	C252.010803,341.009460 252.001648,341.002655 251.998993,340.997192 
	C254.896988,338.493408 256.501373,335.829407 255.140579,331.618103 
	C254.063278,328.284149 255.803345,325.523285 259.521545,324.040436 
	C260.845581,325.113190 261.818420,326.232697 262.924377,327.996277 
	C264.694458,330.113953 266.331451,331.587555 267.816528,333.408386 
	C267.972260,341.256073 268.279938,348.756561 268.606354,356.713623 
	C268.724304,356.687134 267.810303,356.892456 266.896301,357.097809 
	C266.896301,357.097809 266.948883,357.004425 266.851929,356.808167 
	C266.459412,356.436035 266.163818,356.260162 265.868195,356.084290 
	C265.868195,356.084320 265.958984,356.112305 265.930664,355.770172 
	C262.658691,352.933105 259.415039,350.438202 256.171356,347.943268 
	C255.503632,347.169006 254.835907,346.394714 254.076523,345.306854 
z"/>
<path fill="#063957" opacity="1.000000" stroke="none" 
	d="
M328.635040,369.050171 
	C331.141205,371.403137 333.301453,373.688110 335.826996,376.359467 
	C334.384216,377.360962 332.780792,378.473969 330.716156,379.907104 
	C335.718597,383.130981 334.908722,387.647552 333.800659,391.925598 
	C333.543854,392.917053 331.110596,393.344788 329.248444,394.067322 
	C324.669739,391.926910 320.521423,389.751129 316.596985,387.287872 
	C319.804993,386.685394 323.259308,380.771332 322.675262,377.386627 
	C321.970520,373.302368 321.537445,369.171265 320.986816,365.060425 
	C323.420898,366.367676 325.855011,367.674957 328.635040,369.050171 
z"/>
<path fill="#0B5F92" opacity="1.000000" stroke="none" 
	d="
M267.034607,357.388428 
	C267.810303,356.892456 268.724304,356.687134 268.606354,356.713623 
	C268.279938,348.756561 267.972260,341.256073 268.046814,333.397217 
	C268.429077,333.038818 268.889557,333.040222 268.889557,333.040222 
	C270.506287,334.449280 272.122986,335.858307 273.913239,337.901306 
	C274.813721,339.604095 275.368103,340.861023 276.295227,341.711823 
	C283.257416,348.101257 283.701599,351.538361 278.316223,359.280609 
	C279.770294,360.861115 281.245514,362.464569 283.277557,364.673248 
	C280.850494,364.842346 279.401367,364.943329 277.952240,365.044312 
	C277.952240,365.044312 278.004791,365.009888 277.960175,364.663086 
	C275.885071,363.238892 273.854553,362.161469 271.824066,361.084015 
	C270.273682,359.949036 268.723267,358.814026 267.034607,357.388428 
z"/>
<path fill="#0A5784" opacity="1.000000" stroke="none" 
	d="
M278.109253,365.337158 
	C279.401367,364.943329 280.850494,364.842346 283.277557,364.673248 
	C281.245514,362.464569 279.770294,360.861115 278.316223,359.280609 
	C283.701599,351.538361 283.257416,348.101257 276.295227,341.711823 
	C275.368103,340.861023 274.813721,339.604095 274.089844,338.169678 
	C279.937622,341.669342 285.782288,345.534546 291.817627,350.100037 
	C291.775604,354.025085 290.968079,357.334839 291.429535,360.457092 
	C292.401428,367.032684 291.367798,368.701447 284.668549,369.162567 
	C282.534454,367.985046 280.400360,366.807526 278.109253,365.337158 
z"/>
<path fill="#074265" opacity="1.000000" stroke="none" 
	d="
M320.680603,364.890015 
	C321.537445,369.171265 321.970520,373.302368 322.675262,377.386627 
	C323.259308,380.771332 319.804993,386.685394 316.396393,387.013184 
	C315.971985,387.026001 315.992432,387.014648 315.937622,386.663025 
	C314.865875,385.907135 313.848938,385.502808 312.831970,385.098480 
	C309.937866,383.632996 307.043732,382.167480 304.386108,380.376892 
	C308.642670,380.184906 312.262787,380.246124 310.188538,374.198944 
	C309.576599,372.414948 310.048004,369.533173 311.181091,368.024017 
	C313.745331,364.608765 312.057312,362.366486 310.029297,359.909851 
	C313.477661,361.513092 316.925995,363.116333 320.680603,364.890015 
z"/>
<path fill="#074A70" opacity="1.000000" stroke="none" 
	d="
M309.786652,359.653168 
	C312.057312,362.366486 313.745331,364.608765 311.181091,368.024017 
	C310.048004,369.533173 309.576599,372.414948 310.188538,374.198944 
	C312.262787,380.246124 308.642670,380.184906 304.176636,380.100220 
	C300.201233,378.330994 296.671844,376.513367 293.327484,374.372131 
	C296.849365,373.217987 300.373108,372.430084 300.815857,368.208191 
	C301.118256,365.324738 300.873718,362.383911 300.873718,358.584625 
	C300.580017,357.974976 299.822662,356.402832 299.065308,354.830688 
	C302.558197,356.352631 306.051117,357.874542 309.786652,359.653168 
z"/>
<path fill="#094F77" opacity="1.000000" stroke="none" 
	d="
M298.956573,354.630402 
	C299.822662,356.402832 300.580017,357.974976 300.873718,358.584625 
	C300.873718,362.383911 301.118256,365.324738 300.815857,368.208191 
	C300.373108,372.430084 296.849365,373.217987 293.107971,374.100311 
	C290.168030,372.672546 287.632629,371.192993 284.882874,369.438019 
	C291.367798,368.701447 292.401428,367.032684 291.429535,360.457092 
	C290.968079,357.334839 291.775604,354.025085 292.022797,350.365845 
	C293.182190,350.545349 294.327057,351.159271 295.864624,352.145142 
	C296.470337,352.762390 296.737244,352.911224 297.057953,352.963593 
	C297.057953,352.963593 297.003082,352.999542 297.117584,353.206848 
	C297.509735,353.601990 297.787415,353.789856 298.065063,353.977722 
	C298.370209,354.052032 298.631134,354.202820 298.956573,354.630402 
z"/>
<path fill="#0B5F92" opacity="1.000000" stroke="none" 
	d="
M256.247437,348.267853 
	C259.415039,350.438202 262.658691,352.933105 265.888123,355.791199 
	C262.690399,353.633759 259.506958,351.113098 256.247437,348.267853 
z"/>
<path fill="#0A5784" opacity="1.000000" stroke="none" 
	d="
M272.009155,361.367310 
	C273.854553,362.161469 275.885071,363.238892 277.936859,364.685913 
	C276.036835,363.920532 274.115540,362.785583 272.009155,361.367310 
z"/>
<path fill="#063957" opacity="1.000000" stroke="none" 
	d="
M313.011414,385.367371 
	C313.848938,385.502808 314.865875,385.907135 315.930237,386.669250 
	C315.048706,386.563477 314.119781,386.099854 313.011414,385.367371 
z"/>
<path fill="#0B5F92" opacity="1.000000" stroke="none" 
	d="
M265.946808,356.341614 
	C266.163818,356.260162 266.459412,356.436035 266.846069,356.861389 
	C266.633240,356.940247 266.329346,356.769592 265.946808,356.341614 
z"/>
<path fill="#B4B4B5" opacity="1.000000" stroke="none" 
	d="
M310.985840,169.958817 
	C322.243408,159.481476 339.084351,159.237793 351.511536,169.372482 
	C362.245422,178.126251 365.130005,195.596222 357.899658,208.060852 
	C349.608276,222.354630 333.480255,226.708679 315.941406,219.637436 
	C310.884766,226.185745 305.935791,232.665619 300.902588,239.079407 
	C298.744049,241.830063 296.500854,244.526642 294.132080,247.096603 
	C291.532318,249.917175 288.457275,251.389069 284.892365,248.753357 
	C281.796295,246.464279 281.506378,241.992142 284.306335,238.557770 
	C289.674103,231.973801 295.149506,225.476166 300.674622,219.023544 
	C301.450317,218.117615 302.992828,217.868362 303.768768,216.962524 
	C305.126678,215.377274 306.165314,213.518463 307.517151,211.385071 
	C308.115295,211.001617 308.533997,211.007355 309.239990,211.185974 
	C311.155121,212.778473 312.696533,214.314316 314.424683,215.598999 
	C326.250153,224.389969 343.067108,222.553513 352.808655,211.460312 
	C362.623688,200.283401 362.159058,183.636292 351.868927,172.893295 
	C342.898376,163.527939 325.468658,159.383377 310.927856,171.624512 
	C310.962555,170.699219 310.974182,170.329010 310.985840,169.958817 
M299.622986,223.913177 
	C294.983002,229.307648 290.141754,234.549545 285.851013,240.208801 
	C284.836426,241.547012 284.859039,245.025208 285.894928,246.167587 
	C286.849976,247.220810 290.749695,247.362503 291.724884,246.345367 
	C296.943298,240.902573 301.652100,234.971115 306.715088,228.998505 
	C304.227631,227.038971 302.291595,225.513824 299.622986,223.913177 
M308.981628,221.614365 
	C310.543365,220.561386 312.105103,219.508408 314.147980,218.131042 
	C312.069611,216.558762 310.820557,215.613861 309.135529,214.339127 
	C308.320129,216.928665 303.601837,218.331375 308.981628,221.614365 
M303.923218,220.344788 
	C303.239868,220.556458 302.556488,220.768112 301.873138,220.979767 
	C303.131073,222.475998 304.239929,224.146118 305.704163,225.401779 
	C306.552124,226.128952 307.972260,226.188934 309.134888,226.549179 
	C309.322418,226.114777 309.509918,225.680359 309.697418,225.245956 
	C307.968597,223.773956 306.239777,222.301956 303.923218,220.344788 
z"/>
<path fill="#EA7878" opacity="1.000000" stroke="none" 
	d="
M362.870483,245.953217 
	C360.339478,248.252090 357.455841,250.395172 354.123169,252.514084 
	C353.479431,252.716370 353.284760,252.942841 353.090057,253.169327 
	C353.090057,253.169327 353.059296,253.076385 352.703003,253.058258 
	C350.094025,253.599792 347.841370,254.159470 344.385345,255.018112 
	C346.736237,250.806366 349.012421,247.301041 345.358459,243.833740 
	C345.187897,243.671875 345.605804,242.922852 345.705231,242.438156 
	C346.314392,239.468552 346.910736,236.496338 347.511353,233.524994 
	C347.511353,233.524994 347.604065,233.532883 347.908905,233.601486 
	C348.436371,233.363846 348.658966,233.057587 348.881592,232.751343 
	C348.881592,232.751358 348.909637,232.887772 349.103210,232.828491 
	C349.533875,232.515991 349.771027,232.262787 350.008148,232.009583 
	C353.411255,229.667938 356.814362,227.326279 360.556030,224.908905 
	C360.146698,226.420441 359.398804,228.007721 358.650940,229.595001 
	C358.871674,229.577499 359.092438,229.560013 359.313202,229.542511 
	C359.313202,231.568069 359.353088,233.594574 359.304535,235.618942 
	C359.214203,239.386688 357.240051,243.730103 362.870483,245.953217 
z"/>
<path fill="#CFBEBE" opacity="1.000000" stroke="none" 
	d="
M277.669250,292.124756 
	C275.280518,290.647400 272.733307,289.759033 273.605255,286.062225 
	C273.937805,284.652191 271.035522,282.600739 271.197998,281.003357 
	C271.520996,277.827240 272.946777,274.763336 273.943268,271.276062 
	C278.070465,268.957031 282.171295,267.014954 286.748535,265.333130 
	C284.023163,270.573059 282.818115,275.826996 284.921173,281.585175 
	C285.683472,283.672302 286.304504,285.810974 286.990021,287.926147 
	C284.000732,289.313263 281.011475,290.700378 277.669250,292.124756 
z"/>
<path fill="#D2B2B1" opacity="1.000000" stroke="none" 
	d="
M287.352905,287.916168 
	C286.304504,285.810974 285.683472,283.672302 284.921173,281.585175 
	C282.818115,275.826996 284.023163,270.573059 287.113495,265.304688 
	C291.447479,262.849518 295.892914,260.683014 300.653381,258.772552 
	C298.295532,261.799408 294.343414,264.160767 297.890472,268.906677 
	C298.079102,269.159058 297.852722,269.964569 297.566895,270.292114 
	C293.214264,275.280243 294.691254,279.020752 299.882050,282.194275 
	C299.767975,282.406067 299.598236,282.856323 299.598236,282.856323 
	C295.637421,284.539612 291.676636,286.222900 287.352905,287.916168 
z"/>
<path fill="#E78182" opacity="1.000000" stroke="none" 
	d="
M347.190491,233.623810 
	C346.910736,236.496338 346.314392,239.468552 345.705231,242.438156 
	C345.605804,242.922852 345.187897,243.671875 345.358459,243.833740 
	C349.012421,247.301041 346.736237,250.806366 344.385345,255.018112 
	C347.841370,254.159470 350.094025,253.599792 352.749146,253.074524 
	C349.320404,255.663208 345.489227,258.217499 341.194641,260.646057 
	C340.498352,260.707062 340.265503,260.893829 340.032654,261.080566 
	C340.032654,261.080566 340.008759,261.009094 339.664001,260.971710 
	C338.220490,259.626770 336.090179,258.226105 336.198395,257.027557 
	C336.714508,251.311966 334.322357,245.446198 337.022614,239.870514 
	C340.304962,237.821228 343.587311,235.771927 347.190491,233.623810 
z"/>
<path fill="#DE9798" opacity="1.000000" stroke="none" 
	d="
M329.206055,267.419769 
	C328.786652,267.739410 328.367279,268.059052 327.825500,268.616241 
	C326.951752,269.156586 326.200378,269.459381 324.953674,269.969635 
	C324.219055,270.418701 323.979828,270.660339 323.740601,270.902008 
	C323.740601,270.902008 323.314117,270.918701 322.891296,271.055450 
	C322.239349,271.433533 322.010162,271.674896 321.781006,271.916229 
	C321.781006,271.916229 321.331787,271.951599 320.909729,272.097595 
	C320.162109,272.373779 319.941925,272.604492 319.827118,272.935822 
	C319.827118,272.935822 319.391052,272.884705 318.943420,272.596008 
	C313.174774,269.168976 314.568787,263.925995 314.456726,259.199585 
	C314.398804,256.756561 314.644714,254.306320 314.753326,251.859344 
	C318.479523,249.836288 322.205719,247.813232 326.379913,246.123611 
	C326.443481,250.386871 327.108765,254.853073 325.436829,258.124939 
	C322.702057,263.476746 325.597290,265.298096 329.206055,267.419769 
z"/>
<path fill="#E28D8D" opacity="1.000000" stroke="none" 
	d="
M329.518677,267.323669 
	C325.597290,265.298096 322.702057,263.476746 325.436829,258.124939 
	C327.108765,254.853073 326.443481,250.386871 326.725769,246.050354 
	C326.623657,245.643646 326.653351,245.670334 327.053070,245.768982 
	C328.290253,245.211624 329.127716,244.555603 329.965210,243.899567 
	C330.380737,243.580292 330.796265,243.261002 331.837097,242.922531 
	C332.941101,242.477295 333.419861,242.051254 333.898590,241.625198 
	C334.737518,241.072525 335.576416,240.519867 336.718994,239.918854 
	C334.322357,245.446198 336.714508,251.311966 336.198395,257.027557 
	C336.090179,258.226105 338.220490,259.626770 339.696716,260.990387 
	C338.025696,262.359314 335.977173,263.672180 333.345154,265.079895 
	C332.515564,265.394226 332.269531,265.613678 332.023468,265.833191 
	C331.292755,266.297974 330.562042,266.762787 329.518677,267.323669 
z"/>
<path fill="#DBA0A0" opacity="1.000000" stroke="none" 
	d="
M314.408752,251.879318 
	C314.644714,254.306320 314.398804,256.756561 314.456726,259.199585 
	C314.568787,263.925995 313.174774,269.168976 318.726898,272.559967 
	C317.814148,273.470184 316.670288,274.127716 314.995514,274.995300 
	C314.224457,275.437988 313.984344,275.670624 313.744202,275.903259 
	C313.744202,275.903229 313.320038,275.910828 312.920105,276.000946 
	C312.520203,276.091064 312.051483,276.027863 311.755676,276.043030 
	C310.963226,276.331299 310.466644,276.604431 309.970062,276.877563 
	C309.970062,276.877563 310.064667,277.054413 309.832458,277.047607 
	C309.600220,277.040771 309.102051,277.031647 308.703430,277.010773 
	C304.394928,274.173035 304.298431,269.849579 304.746002,265.881561 
	C305.160828,262.203491 306.861084,258.670410 307.995331,255.073486 
	C310.018280,254.015411 312.041229,252.957352 314.408752,251.879318 
z"/>
<path fill="#D6ABAC" opacity="1.000000" stroke="none" 
	d="
M307.639954,255.097977 
	C306.861084,258.670410 305.160828,262.203491 304.746002,265.881561 
	C304.298431,269.849579 304.394928,274.173035 308.641357,277.243896 
	C308.977905,277.497864 308.937134,277.978516 308.937134,277.978516 
	C307.795959,278.580322 306.654755,279.182129 304.994690,279.964508 
	C304.249512,280.379822 304.023193,280.614532 303.796875,280.849243 
	C303.796906,280.849274 303.908661,280.904175 303.595459,280.867004 
	C302.818420,281.124146 302.354523,281.418457 301.890656,281.712799 
	C301.725464,281.745148 301.560242,281.777527 300.945312,281.921722 
	C300.329041,282.016479 300.162567,281.999451 299.996124,281.982452 
	C294.691254,279.020752 293.214264,275.280243 297.566895,270.292114 
	C297.852722,269.964569 298.079102,269.159058 297.890472,268.906677 
	C294.343414,264.160767 298.295532,261.799408 300.981079,258.679504 
	C303.090668,257.261078 305.187592,256.191772 307.639954,255.097977 
z"/>
<path fill="#B2B2B2" opacity="1.000000" stroke="none" 
	d="
M308.952698,211.013092 
	C308.533997,211.007355 308.115295,211.001617 307.382599,210.989594 
	C299.105499,200.830994 298.447052,186.908142 305.515167,176.162537 
	C306.924896,174.019287 308.647247,172.081680 310.605652,170.004028 
	C310.974182,170.329010 310.962555,170.699219 310.804321,171.819321 
	C300.474854,185.635147 299.963654,197.161133 308.952698,211.013092 
z"/>
<path fill="#F26C6D" opacity="1.000000" stroke="none" 
	d="
M375.711578,212.103485 
	C375.229736,212.983459 374.457642,213.977737 373.308075,214.966095 
	C373.760834,214.046051 374.591095,213.131927 375.711578,212.103485 
z"/>
<path fill="#DE9798" opacity="1.000000" stroke="none" 
	d="
M329.647278,243.942307 
	C329.127716,244.555603 328.290253,245.211624 327.072388,245.771606 
	C327.571075,245.112076 328.450195,244.548569 329.647278,243.942307 
z"/>
<path fill="#DE9798" opacity="1.000000" stroke="none" 
	d="
M333.585999,241.711700 
	C333.419861,242.051254 332.941101,242.477295 332.112915,242.912323 
	C332.266754,242.546921 332.770111,242.172546 333.585999,241.711700 
z"/>
<path fill="#EA7878" opacity="1.000000" stroke="none" 
	d="
M367.536194,219.728043 
	C367.433228,220.093948 367.036926,220.518616 366.324036,220.975616 
	C366.419281,220.600891 366.831085,220.193848 367.536194,219.728043 
z"/>
<path fill="#F26C6D" opacity="1.000000" stroke="none" 
	d="
M372.711975,214.997498 
	C372.774200,215.207611 372.573578,215.488632 372.124603,215.861877 
	C372.067200,215.658859 372.258148,215.363632 372.711975,214.997498 
z"/>
<path fill="#F26C6D" opacity="1.000000" stroke="none" 
	d="
M371.687988,215.954346 
	C371.755341,216.169601 371.556854,216.463226 371.100464,216.845749 
	C371.035767,216.634018 371.229004,216.333359 371.687988,215.954346 
z"/>
<path fill="#E78182" opacity="1.000000" stroke="none" 
	d="
M348.604187,232.791107 
	C348.658966,233.057587 348.436371,233.363846 347.913055,233.647812 
	C347.850525,233.360641 348.088654,233.095749 348.604187,232.791107 
z"/>
<path fill="#E78182" opacity="1.000000" stroke="none" 
	d="
M349.736450,232.045837 
	C349.771027,232.262787 349.533875,232.515991 349.034058,232.820221 
	C349.002502,232.608185 349.233612,232.345154 349.736450,232.045837 
z"/>
<path fill="#EA7878" opacity="1.000000" stroke="none" 
	d="
M361.722595,224.009430 
	C361.776703,224.225281 361.561859,224.499863 361.090027,224.851410 
	C361.039856,224.641617 361.246735,224.354889 361.722595,224.009430 
z"/>
<path fill="#EA7878" opacity="1.000000" stroke="none" 
	d="
M368.618347,218.759674 
	C368.696289,218.989334 368.499176,219.334686 368.002869,219.761230 
	C367.916901,219.520050 368.130066,219.197723 368.618347,218.759674 
z"/>
<path fill="#EA7878" opacity="1.000000" stroke="none" 
	d="
M364.660461,221.938385 
	C364.691559,222.165070 364.426758,222.467743 363.856049,222.830383 
	C363.821625,222.598373 364.093079,222.306366 364.660461,221.938385 
z"/>
<path fill="#EA7878" opacity="1.000000" stroke="none" 
	d="
M365.742279,221.056183 
	C365.789948,221.267822 365.573181,221.527283 365.109283,221.864899 
	C365.067383,221.663361 365.272614,221.383698 365.742279,221.056183 
z"/>
<path fill="#0A5784" opacity="1.000000" stroke="none" 
	d="
M295.976379,346.014526 
	C291.443573,343.197388 286.910797,340.380249 282.594238,337.279663 
	C285.288055,337.597351 287.765625,338.198456 290.496948,338.861115 
	C291.297272,333.775848 292.413727,329.022369 287.040039,326.029938 
	C291.425018,321.395111 291.425018,321.395111 288.278564,317.017456 
	C289.362030,317.042053 290.169983,317.051941 290.977966,317.061798 
	C291.546204,317.230713 292.114471,317.399628 292.884644,318.156982 
	C293.984894,319.186340 294.883209,319.627258 295.781525,320.068176 
	C296.078613,320.263733 296.375702,320.459290 297.008240,321.099854 
	C297.888000,321.700836 298.432251,321.856781 298.976532,322.012695 
	C298.976532,322.012695 298.999390,321.998322 299.000854,322.389648 
	C300.815277,324.778717 302.628265,326.776398 304.663513,329.018982 
	C299.882629,334.434875 300.817444,340.940247 304.087646,347.560181 
	C300.768066,346.927612 298.372223,346.471069 295.976379,346.014526 
z"/>
<path fill="#DBA0A0" opacity="1.000000" stroke="none" 
	d="
M324.024536,276.068573 
	C324.567932,275.877136 325.111328,275.685730 326.122681,275.248749 
	C327.046661,274.663940 327.502686,274.324738 327.958740,273.985504 
	C327.958740,273.985504 327.990692,274.009521 328.295593,273.978882 
	C328.886627,273.685028 329.172729,273.421814 329.458862,273.158630 
	C329.458862,273.158630 329.785614,273.170929 330.145447,273.079987 
	C330.673309,272.999420 330.841339,273.009796 330.971741,273.367798 
	C328.986603,277.482819 324.276733,279.111755 326.371368,285.798767 
	C328.352142,292.122192 326.940125,293.424072 333.773560,294.323059 
	C329.505920,296.569214 325.238281,298.815338 320.263184,300.940399 
	C317.712860,299.454834 314.199615,297.912292 314.322723,296.757294 
	C314.798950,292.288879 309.557617,287.530975 314.784729,283.323608 
	C314.815460,283.298889 314.114716,282.365387 313.755554,281.856262 
	C315.984772,280.626465 318.213989,279.396698 320.970886,277.963531 
	C321.825378,277.637146 322.029419,277.405853 322.110657,277.066223 
	C322.110657,277.066223 322.033813,277.013428 322.340149,277.037689 
	C323.105804,276.730804 323.565155,276.399689 324.024536,276.068573 
z"/>
<path fill="#074061" opacity="1.000000" stroke="none" 
	d="
M328.877472,362.068665 
	C325.986450,360.947449 323.095459,359.826202 320.393890,358.378662 
	C321.938873,357.882019 323.294434,357.711639 324.650024,357.541229 
	C324.890503,357.061340 325.130981,356.581451 325.371460,356.101562 
	C323.762756,355.288422 322.154083,354.475250 320.689331,353.734833 
	C326.390839,346.155518 321.710754,339.599670 321.017456,332.979126 
	C325.201691,334.792816 329.385925,336.606506 333.807373,338.985535 
	C334.362335,340.035645 334.680115,340.520416 335.037170,341.368866 
	C335.210815,342.974792 335.849823,345.061218 335.401642,345.329071 
	C330.764954,348.101105 333.529083,352.492035 333.752686,355.573578 
	C334.207306,361.838409 334.918884,361.786774 328.877472,362.068665 
z"/>
<path fill="#094F77" opacity="1.000000" stroke="none" 
	d="
M296.179688,346.286499 
	C298.372223,346.471069 300.768066,346.927612 304.087646,347.560181 
	C300.817444,340.940247 299.882629,334.434875 304.663513,329.018982 
	C302.628265,326.776398 300.815277,324.778717 298.995361,322.401611 
	C301.860138,323.476990 304.731903,324.931793 307.848816,326.980011 
	C309.404663,328.026550 310.715424,328.479645 312.026154,328.932739 
	C312.581543,329.086029 313.136963,329.239319 313.849792,330.046844 
	C313.958954,334.870789 313.490509,339.088409 313.959167,343.199158 
	C314.691620,349.623138 313.633270,351.520874 307.704224,352.157471 
	C303.930481,350.291107 300.156708,348.424774 296.179688,346.286499 
z"/>
<path fill="#0B5F92" opacity="1.000000" stroke="none" 
	d="
M288.003052,317.002747 
	C291.425018,321.395111 291.425018,321.395111 287.040039,326.029938 
	C292.413727,329.022369 291.297272,333.775848 290.496948,338.861115 
	C287.765625,338.198456 285.288055,337.597351 282.409668,337.001587 
	C282.008850,337.006958 281.996552,337.001251 281.874298,336.768494 
	C281.455536,336.376587 281.158997,336.217438 280.862488,336.058289 
	C279.330109,334.914612 277.797760,333.770966 276.132721,332.077209 
	C276.005829,331.352509 276.011566,331.177948 276.283203,330.765472 
	C281.808716,323.654480 277.009918,316.051941 278.119110,308.877838 
	C279.666290,309.951996 281.213501,311.026184 283.030029,312.683228 
	C283.887238,313.492126 284.475098,313.718170 285.062958,313.944214 
	C285.062958,313.944214 284.989197,313.968384 285.040100,314.274475 
	C285.721252,315.054596 286.351532,315.528625 287.200928,316.114380 
	C287.697784,316.422394 287.892120,316.681244 288.003052,317.002747 
z"/>
<path fill="#D6ABAC" opacity="1.000000" stroke="none" 
	d="
M313.406921,281.909637 
	C314.114716,282.365387 314.815460,283.298889 314.784729,283.323608 
	C309.557617,287.530975 314.798950,292.288879 314.322723,296.757294 
	C314.199615,297.912292 317.712860,299.454834 319.912354,300.968018 
	C314.446198,303.758423 308.623444,306.400116 302.409912,308.629639 
	C302.332733,301.138672 302.646271,294.059906 302.959808,286.981110 
	C306.325958,285.308411 309.692139,283.635712 313.406921,281.909637 
z"/>
<path fill="#0A689E" opacity="1.000000" stroke="none" 
	d="
M278.110291,308.892029 
	C277.009918,316.051941 281.808716,323.654480 276.012329,330.763123 
	C275.295898,331.013672 275.116211,331.028687 274.936554,331.043671 
	C271.709045,327.904785 268.481506,324.765900 265.163666,321.306519 
	C266.194092,320.892822 267.314819,320.799622 268.871674,320.670166 
	C268.024567,318.330994 267.421356,316.313416 266.566711,314.408630 
	C265.782715,312.661377 264.727539,311.035797 264.286469,310.244293 
	C266.244354,307.981964 267.618927,306.393616 269.381195,304.401184 
	C270.787903,304.018433 271.806946,304.039764 272.825989,304.061096 
	C273.220581,304.390472 273.615143,304.719879 274.049469,305.721405 
	C275.424500,307.233582 276.759766,308.073669 278.095001,308.913757 
	C278.095001,308.913757 278.101440,308.906189 278.110291,308.892029 
z"/>
<path fill="#08476D" opacity="1.000000" stroke="none" 
	d="
M307.930115,352.428528 
	C313.633270,351.520874 314.691620,349.623138 313.959167,343.199158 
	C313.490509,339.088409 313.958954,334.870789 314.041748,330.266296 
	C314.866150,330.116699 315.656097,330.401886 316.622955,331.143433 
	C318.205048,332.060791 319.610260,332.521820 321.015442,332.982849 
	C321.015442,332.982849 321.004578,332.996582 321.011017,332.987854 
	C321.710754,339.599670 326.390839,346.155518 320.689331,353.734833 
	C322.154083,354.475250 323.762756,355.288422 325.371460,356.101562 
	C325.130981,356.581451 324.890503,357.061340 324.650024,357.541229 
	C323.294434,357.711639 321.938873,357.882019 320.170288,358.100830 
	C315.890167,356.332703 312.023071,354.516144 307.930115,352.428528 
z"/>
<path fill="#E19595" opacity="1.000000" stroke="none" 
	d="
M334.086761,294.253632 
	C326.940125,293.424072 328.352142,292.122192 326.371368,285.798767 
	C324.276733,279.111755 328.986603,277.482819 331.067505,273.150116 
	C331.200897,272.584839 331.348511,272.132629 331.348511,272.132629 
	C331.348511,272.132629 331.727783,272.117126 332.128662,271.992798 
	C332.748993,271.622253 332.968445,271.376007 333.187866,271.129761 
	C333.187897,271.129761 333.145294,271.129730 333.164764,271.144775 
	C334.802887,270.424438 336.421509,269.689056 338.650696,269.082001 
	C339.291504,269.652069 339.472351,270.422455 339.330048,270.487671 
	C335.257019,272.354218 334.598999,274.730774 337.860107,278.091064 
	C338.431854,278.680206 338.669830,280.379120 338.243439,281.026154 
	C334.989716,285.964081 337.718445,288.201263 341.970825,289.874084 
	C339.447205,291.310791 336.923584,292.747498 334.086761,294.253632 
z"/>
<path fill="#D3B6B5" opacity="1.000000" stroke="none" 
	d="
M302.601929,286.973358 
	C302.646271,294.059906 302.332733,301.138672 302.031677,308.665894 
	C299.244751,310.103271 296.445312,311.092255 293.317139,311.598785 
	C291.927246,308.159729 289.204895,305.417999 291.927826,301.968384 
	C292.232483,301.582458 291.744232,300.655792 291.884064,300.038879 
	C292.340363,298.025604 292.865570,296.023926 293.466980,294.049072 
	C293.832794,292.847809 294.387787,291.704193 294.857788,290.534668 
	C297.319855,289.344971 299.781952,288.155304 302.601929,286.973358 
z"/>
<path fill="#063957" opacity="1.000000" stroke="none" 
	d="
M329.088196,362.321960 
	C334.918884,361.786774 334.207306,361.838409 333.752686,355.573578 
	C333.529083,352.492035 330.764954,348.101105 335.401642,345.329071 
	C335.849823,345.061218 335.210815,342.974792 335.331299,341.347351 
	C336.053375,340.654358 336.520599,340.346527 336.987823,340.038696 
	C337.539825,340.209076 338.091797,340.379456 338.817291,340.789337 
	C338.205017,345.512299 341.676300,344.943848 344.570862,345.252228 
	C344.336029,347.736816 340.853760,350.763489 346.750275,351.919525 
	C341.260071,356.131104 344.123047,360.789886 345.074432,365.031586 
	C341.602295,365.031586 338.709534,365.031586 335.369507,365.064392 
	C334.922211,365.097198 334.946594,365.072906 334.797455,364.804047 
	C334.079193,364.367950 333.510101,364.200714 332.940979,364.033478 
	C331.726959,363.547394 330.512939,363.061340 329.088196,362.321960 
z"/>
<path fill="#E28D8D" opacity="1.000000" stroke="none" 
	d="
M342.312561,289.831360 
	C337.718445,288.201263 334.989716,285.964081 338.243439,281.026154 
	C338.669830,280.379120 338.431854,278.680206 337.860107,278.091064 
	C334.598999,274.730774 335.257019,272.354218 339.330048,270.487671 
	C339.472351,270.422455 339.291504,269.652069 338.982361,269.020630 
	C339.128204,268.527313 339.552948,268.223663 340.546753,267.857422 
	C341.409088,267.539093 341.702454,267.283386 341.995819,267.027710 
	C343.060822,266.306000 344.125824,265.584290 345.511597,264.810364 
	C344.367249,268.497742 344.247803,271.940186 346.483673,275.682831 
	C347.371307,277.168610 346.203918,279.882111 345.896179,282.742462 
	C347.120056,283.003906 348.988403,283.403015 351.036743,284.109070 
	C348.362549,286.206879 345.508423,287.997772 342.312561,289.831360 
z"/>
<path fill="#CFBEBE" opacity="1.000000" stroke="none" 
	d="
M294.497070,290.645752 
	C294.387787,291.704193 293.832794,292.847809 293.466980,294.049072 
	C292.865570,296.023926 292.340363,298.025604 291.884064,300.038879 
	C291.744232,300.655792 292.232483,301.582458 291.927826,301.968384 
	C289.204895,305.417999 291.927246,308.159729 292.992554,311.473938 
	C287.051300,307.875885 281.105865,303.920288 274.079590,299.245575 
	C281.711121,296.015656 287.923737,293.386261 294.497070,290.645752 
z"/>
<path fill="#0A689E" opacity="1.000000" stroke="none" 
	d="
M269.006531,302.992676 
	C267.731018,302.549866 266.455536,302.107025 265.179993,301.664185 
	C265.703430,300.566040 266.226837,299.467896 266.965454,298.050659 
	C267.742065,298.248871 268.303467,298.766205 268.946350,299.947998 
	C269.020721,301.405853 269.013641,302.199280 269.006531,302.992676 
z"/>
<path fill="#0B5F92" opacity="1.000000" stroke="none" 
	d="
M269.005981,303.243591 
	C269.013641,302.199280 269.020721,301.405853 269.057617,300.215149 
	C270.274261,301.029663 271.461121,302.241455 272.736969,303.757202 
	C271.806946,304.039764 270.787903,304.018433 269.385651,303.996735 
	C269.003479,303.829071 269.004486,303.661774 269.005981,303.243591 
z"/>
<path fill="#0B5F92" opacity="1.000000" stroke="none" 
	d="
M277.965515,308.612610 
	C276.759766,308.073669 275.424500,307.233582 274.139465,305.969025 
	C275.405121,306.466858 276.620544,307.389191 277.965515,308.612610 
z"/>
<path fill="#08476D" opacity="1.000000" stroke="none" 
	d="
M311.828308,328.674835 
	C310.715424,328.479645 309.404663,328.026550 308.069153,327.236511 
	C309.239716,327.405334 310.435089,327.911133 311.828308,328.674835 
z"/>
<path fill="#074061" opacity="1.000000" stroke="none" 
	d="
M320.828918,332.712646 
	C319.610260,332.521820 318.205048,332.060791 316.899933,331.300598 
	C318.214111,331.481781 319.428253,331.962128 320.828918,332.712646 
z"/>
<path fill="#094F77" opacity="1.000000" stroke="none" 
	d="
M288.278564,317.017456 
	C287.892120,316.681244 287.697784,316.422394 287.203796,315.877197 
	C286.987518,315.528259 286.987549,315.053894 286.987549,315.053894 
	C288.214233,315.525482 289.440948,315.997040 290.822815,316.765198 
	C290.169983,317.051941 289.362030,317.042053 288.278564,317.017456 
z"/>
<path fill="#07324C" opacity="1.000000" stroke="none" 
	d="
M336.789978,339.772095 
	C336.520599,340.346527 336.053375,340.654358 335.292023,340.983704 
	C334.680115,340.520416 334.362335,340.035645 334.040405,339.243896 
	C334.888245,339.126465 335.740173,339.316010 336.789978,339.772095 
z"/>
<path fill="#094F77" opacity="1.000000" stroke="none" 
	d="
M295.725220,319.757690 
	C294.883209,319.627258 293.984894,319.186340 293.028564,318.422974 
	C293.870026,318.549438 294.769440,318.998352 295.725220,319.757690 
z"/>
<path fill="#0F0708" opacity="1.000000" stroke="none" 
	d="
M302.049713,281.984558 
	C302.354523,281.418457 302.818420,281.124146 303.567810,280.811218 
	C303.305145,281.280518 302.756958,281.768433 302.049713,281.984558 
z"/>
<path fill="#0F0708" opacity="1.000000" stroke="none" 
	d="
M323.853455,275.828674 
	C323.565155,276.399689 323.105804,276.730804 322.354797,277.081940 
	C322.602905,276.597565 323.142639,276.093201 323.853455,275.828674 
z"/>
<path fill="#0A5784" opacity="1.000000" stroke="none" 
	d="
M286.820831,314.809509 
	C286.987549,315.053894 286.987518,315.528259 286.984680,315.765442 
	C286.351532,315.528625 285.721252,315.054596 285.072510,314.251953 
	C285.587402,314.137268 286.120758,314.351196 286.820831,314.809509 
z"/>
<path fill="#0F0708" opacity="1.000000" stroke="none" 
	d="
M327.661743,273.999512 
	C327.502686,274.324738 327.046661,274.663940 326.298859,275.012756 
	C326.459656,274.686096 326.912201,274.349823 327.661743,273.999512 
z"/>
<path fill="#094F77" opacity="1.000000" stroke="none" 
	d="
M298.808228,321.773956 
	C298.432251,321.856781 297.888000,321.700836 297.167511,321.316467 
	C297.540863,321.237061 298.090393,321.386139 298.808228,321.773956 
z"/>
<path fill="#D6ABAC" opacity="1.000000" stroke="none" 
	d="
M310.253204,276.968567 
	C310.466644,276.604431 310.963226,276.331299 311.664368,276.256042 
	C311.868927,276.453949 311.710602,276.889862 311.710602,276.889862 
	C311.319183,276.946442 310.927765,277.003052 310.253204,276.968567 
z"/>
<path fill="#0A5784" opacity="1.000000" stroke="none" 
	d="
M284.903198,313.686584 
	C284.475098,313.718170 283.887238,313.492126 283.209717,312.943207 
	C283.661194,312.889893 284.202332,313.159424 284.903198,313.686584 
z"/>
<path fill="#0F0708" opacity="1.000000" stroke="none" 
	d="
M299.882050,282.194275 
	C300.162567,281.999451 300.329041,282.016479 300.743347,282.073364 
	C300.712311,282.346344 300.433441,282.579529 299.876404,282.834503 
	C299.598236,282.856323 299.767975,282.406067 299.882050,282.194275 
z"/>
<path fill="#0F0708" opacity="1.000000" stroke="none" 
	d="
M322.025421,271.879700 
	C322.010162,271.674896 322.239349,271.433533 322.725586,271.189880 
	C322.832550,271.501221 322.594940,271.719757 322.025421,271.879700 
z"/>
<path fill="#0F0708" opacity="1.000000" stroke="none" 
	d="
M304.041199,280.830658 
	C304.023193,280.614532 304.249512,280.379822 304.732239,280.154114 
	C304.846680,280.479553 304.612305,280.695862 304.041199,280.830658 
z"/>
<path fill="#0F0708" opacity="1.000000" stroke="none" 
	d="
M321.886292,277.104919 
	C322.029419,277.405853 321.825378,277.637146 321.259277,277.761719 
	C321.152130,277.471954 321.366089,277.265381 321.886292,277.104919 
z"/>
<path fill="#0F0708" opacity="1.000000" stroke="none" 
	d="
M309.155487,277.914307 
	C308.937134,277.978516 308.977905,277.497864 309.039978,277.264771 
	C309.102051,277.031647 309.600220,277.040771 309.825287,277.147614 
	C309.880554,277.516266 309.655060,277.714813 309.155487,277.914307 
z"/>
<path fill="#0F0708" opacity="1.000000" stroke="none" 
	d="
M311.967102,276.862305 
	C311.710602,276.889862 311.868927,276.453949 311.960205,276.240906 
	C312.051483,276.027863 312.520203,276.091064 312.753174,276.131805 
	C312.731964,276.393280 312.477783,276.614044 311.967102,276.862305 
z"/>
<path fill="#0F0708" opacity="1.000000" stroke="none" 
	d="
M313.993591,275.874878 
	C313.984344,275.670624 314.224457,275.437988 314.723206,275.202271 
	C314.735504,275.414917 314.489227,275.630707 313.993591,275.874878 
z"/>
<path fill="#0F0708" opacity="1.000000" stroke="none" 
	d="
M329.163818,273.184662 
	C329.172729,273.421814 328.886627,273.685028 328.299255,273.959229 
	C328.288239,273.717041 328.578491,273.463898 329.163818,273.184662 
z"/>
<path fill="#0F0708" opacity="1.000000" stroke="none" 
	d="
M331.074554,272.165436 
	C331.348511,272.132629 331.200897,272.584839 331.105103,272.802490 
	C330.841339,273.009796 330.673309,272.999420 330.254639,272.958313 
	C330.269531,272.684448 330.535065,272.441345 331.074554,272.165436 
z"/>
<path fill="#0F0708" opacity="1.000000" stroke="none" 
	d="
M320.061340,272.898804 
	C319.941925,272.604492 320.162109,272.373779 320.732971,272.237305 
	C320.834503,272.531952 320.606964,272.742218 320.061340,272.898804 
z"/>
<path fill="#0F0708" opacity="1.000000" stroke="none" 
	d="
M332.943573,271.160522 
	C332.968445,271.376007 332.748993,271.622253 332.270142,271.866302 
	C332.147278,271.544678 332.376770,271.320404 332.943573,271.160522 
z"/>
<path fill="#0F0708" opacity="1.000000" stroke="none" 
	d="
M323.993530,270.870422 
	C323.979828,270.660339 324.219055,270.418701 324.721130,270.172333 
	C324.738159,270.391357 324.492310,270.615112 323.993530,270.870422 
z"/>
<path fill="#0A5784" opacity="1.000000" stroke="none" 
	d="
M268.773438,332.732361 
	C268.889557,333.040222 268.429077,333.038818 268.198761,333.049988 
	C266.331451,331.587555 264.694458,330.113953 263.043884,328.290222 
	C264.906006,329.434875 266.781647,330.929657 268.773438,332.732361 
z"/>
<path fill="#07324C" opacity="1.000000" stroke="none" 
	d="
M333.116425,364.273865 
	C333.510101,364.200714 334.079193,364.367950 334.800232,364.799530 
	C334.398712,364.880646 333.845276,364.697418 333.116425,364.273865 
z"/>
<path fill="#074A70" opacity="1.000000" stroke="none" 
	d="
M297.960205,353.743164 
	C297.787415,353.789856 297.509735,353.601990 297.132782,353.177765 
	C297.307434,353.130493 297.581360,353.319580 297.960205,353.743164 
z"/>
<path fill="#0A689E" opacity="1.000000" stroke="none" 
	d="
M261.119385,315.285889 
	C261.325165,315.265625 261.569092,315.506134 261.854126,316.008942 
	C261.649353,316.029755 261.403442,315.788208 261.119385,315.285889 
z"/>
<path fill="#0A5784" opacity="1.000000" stroke="none" 
	d="
M275.022125,331.287292 
	C275.116211,331.028687 275.295898,331.013672 275.746460,331.001038 
	C276.011566,331.177948 276.005829,331.352509 275.983398,331.789246 
	C275.680389,331.877899 275.394043,331.704407 275.022125,331.287292 
z"/>
<path fill="#074A70" opacity="1.000000" stroke="none" 
	d="
M296.952209,352.751343 
	C296.737244,352.911224 296.470337,352.762390 296.141205,352.317261 
	C296.360504,352.137970 296.634277,352.278534 296.952209,352.751343 
z"/>
<path fill="#0A5784" opacity="1.000000" stroke="none" 
	d="
M280.974426,336.293060 
	C281.158997,336.217438 281.455536,336.376587 281.870758,336.763977 
	C281.688416,336.837372 281.387390,336.682617 280.974426,336.293060 
z"/>
<path fill="#E28D8D" opacity="1.000000" stroke="none" 
	d="
M346.040771,264.822021 
	C346.007202,264.608215 346.237762,264.340973 346.742950,264.033447 
	C346.780029,264.251617 346.542450,264.510071 346.040771,264.822021 
z"/>
<path fill="#EA7878" opacity="1.000000" stroke="none" 
	d="
M368.002319,249.769592 
	C367.935150,249.524994 368.151947,249.237656 368.644653,248.884460 
	C368.709106,249.121353 368.497681,249.424103 368.002319,249.769592 
z"/>
<path fill="#E19595" opacity="1.000000" stroke="none" 
	d="
M341.694916,267.060425 
	C341.702454,267.283386 341.409088,267.539093 340.818909,267.841675 
	C340.812714,267.623413 341.103363,267.358307 341.694916,267.060425 
z"/>
<path fill="#DE9798" opacity="1.000000" stroke="none" 
	d="
M332.286255,265.819916 
	C332.269531,265.613678 332.515564,265.394226 333.008270,265.121857 
	C333.019623,265.314850 332.784332,265.560760 332.286255,265.819916 
z"/>
<path fill="#E28D8D" opacity="1.000000" stroke="none" 
	d="
M340.274414,261.028931 
	C340.265503,260.893829 340.498352,260.707062 340.852448,260.654999 
	C340.973694,260.789673 340.516205,260.977264 340.274414,261.028931 
z"/>
<path fill="#E78182" opacity="1.000000" stroke="none" 
	d="
M353.332947,253.114441 
	C353.284760,252.942841 353.479431,252.716370 353.809326,252.607300 
	C353.944489,252.724716 353.575836,253.059540 353.332947,253.114441 
z"/>
<path fill="#04121A" opacity="1.000000" stroke="none" 
	d="
M402.466858,390.449127 
	C402.522797,390.415649 402.410950,390.482605 402.466858,390.449127 
z"/>
<path fill="#1370A8" opacity="1.000000" stroke="none" 
	d="
M252.112656,341.223389 
	C252.325027,341.102966 252.579483,341.281586 252.877991,341.757141 
	C252.666611,341.877441 252.410858,341.700195 252.112656,341.223389 
z"/>
<path fill="#0E0E0E" opacity="1.000000" stroke="none" 
	d="
M309.239990,211.185974 
	C299.963654,197.161133 300.474854,185.635147 310.781311,172.374420 
	C325.468658,159.383377 342.898376,163.527939 351.868927,172.893295 
	C362.159058,183.636292 362.623688,200.283401 352.808655,211.460312 
	C343.067108,222.553513 326.250153,224.389969 314.424683,215.598999 
	C312.696533,214.314316 311.155121,212.778473 309.239990,211.185974 
M356.314758,190.701111 
	C354.450714,174.800446 341.760834,165.304840 325.978882,168.001343 
	C312.553711,170.295166 303.590210,184.767212 306.915955,198.779449 
	C309.694275,210.485184 321.814423,219.187424 333.419006,217.808578 
	C347.228668,216.167709 355.977417,206.184113 356.314758,190.701111 
z"/>
<path fill="#080808" opacity="1.000000" stroke="none" 
	d="
M299.989258,223.950928 
	C302.291595,225.513824 304.227631,227.038971 306.715088,228.998505 
	C301.652100,234.971115 296.943298,240.902573 291.724884,246.345367 
	C290.749695,247.362503 286.849976,247.220810 285.894928,246.167587 
	C284.859039,245.025208 284.836426,241.547012 285.851013,240.208801 
	C290.141754,234.549545 294.983002,229.307648 299.989258,223.950928 
z"/>
<path fill="#0E0E0E" opacity="1.000000" stroke="none" 
	d="
M308.694183,221.396317 
	C303.601837,218.331375 308.320129,216.928665 309.135529,214.339127 
	C310.820557,215.613861 312.069611,216.558762 314.147980,218.131042 
	C312.105103,219.508408 310.543365,220.561386 308.694183,221.396317 
z"/>
<path fill="#0E0E0E" opacity="1.000000" stroke="none" 
	d="
M304.217072,220.587372 
	C306.239777,222.301956 307.968597,223.773956 309.697418,225.245956 
	C309.509918,225.680359 309.322418,226.114777 309.134888,226.549179 
	C307.972260,226.188934 306.552124,226.128952 305.704163,225.401779 
	C304.239929,224.146118 303.131073,222.475998 301.873138,220.979767 
	C302.556488,220.768112 303.239868,220.556458 304.217072,220.587372 
z"/>
<path fill="#B2B2B2" opacity="1.000000" stroke="none" 
	d="
M356.344177,191.157547 
	C355.977417,206.184113 347.228668,216.167709 333.419006,217.808578 
	C321.814423,219.187424 309.694275,210.485184 306.915955,198.779449 
	C303.590210,184.767212 312.553711,170.295166 325.978882,168.001343 
	C341.760834,165.304840 354.450714,174.800446 356.344177,191.157547 
M314.391602,176.919083 
	C305.420929,187.883606 306.414581,203.139282 316.781952,210.598831 
	C328.697662,219.172424 342.018402,217.329880 351.206207,203.998871 
	C356.936462,195.684616 354.564301,181.980637 346.698639,175.290710 
	C337.153503,167.172287 322.786255,168.107697 314.391602,176.919083 
z"/>
<path fill="#020202" opacity="1.000000" stroke="none" 
	d="
M314.642883,176.654831 
	C322.786255,168.107697 337.153503,167.172287 346.698639,175.290710 
	C354.564301,181.980637 356.936462,195.684616 351.206207,203.998871 
	C342.018402,217.329880 328.697662,219.172424 316.781952,210.598831 
	C306.414581,203.139282 305.420929,187.883606 314.642883,176.654831 
z"/>
</svg>